<svg width="120" height="72" viewBox="0 0 120 72" fill="none" xmlns="http://www.w3.org/2000/svg">
<path d="M24.9 9.72C26.5086 9.72 26.8642 9.94402 28.1437 10.98C28.4365 11.2139 28.7292 11.4478 29.0309 11.6888C29.2517 11.8707 29.4725 12.0526 29.7 12.24C29.7 11.4084 29.7 10.5768 29.7 9.72C30.9 9.72 30.9 9.72 31.2996 10.1728C31.5473 10.4833 31.5473 10.4833 31.8 10.8C34.5707 12.8613 37.3779 14.2249 40.5117 15.2714C41.1495 15.4976 41.7732 15.7587 42.4008 16.0228C43.869 16.6177 45.3529 16.9683 46.875 17.3025C50.402 18.082 50.402 18.082 51.3 18.72C51.5777 19.4991 51.5777 19.4991 51.6938 20.385C51.7359 20.6792 51.7781 20.9734 51.8215 21.2766C51.8474 21.5021 51.8733 21.7276 51.9 21.96C52.098 21.96 52.296 21.96 52.5 21.96C52.6299 22.2273 52.7599 22.4946 52.8938 22.77C53.5758 24.1038 54.3398 24.982 55.5938 25.47C55.7608 25.4997 55.9279 25.5294 56.1 25.56C56.1 24.966 56.1 24.372 56.1 23.76C56.298 23.76 56.496 23.76 56.7 23.76C56.765 23.1809 56.765 23.1809 56.8313 22.59C56.8869 22.1445 56.9426 21.699 57 21.24C57.0248 20.9727 57.0495 20.7054 57.075 20.43C57.3 19.8 57.3 19.8 57.8625 19.17C59.2746 18.4922 60.5987 18.6191 62.1 18.72C62.3328 18.7311 62.5656 18.7423 62.8055 18.7538C63.77 18.8404 64.4226 19.0181 65.2313 19.665C65.8471 20.7883 65.9384 21.7085 66 23.04C65.901 23.2776 65.802 23.5152 65.7 23.76C65.304 23.76 64.908 23.76 64.5 23.76C64.599 24.354 64.698 24.948 64.8 25.56C65.5425 25.3818 65.5425 25.3818 66.3 25.2C66.399 24.8436 66.498 24.4872 66.6 24.12C66.7941 23.9641 66.9883 23.8082 67.1883 23.6475C68.0155 22.826 68.0565 22.1226 68.2875 20.88C68.8205 18.8794 68.8205 18.8794 69.532 18.2475C70.3526 17.9435 71.1494 17.7902 72 17.64C72.9954 17.4175 73.9881 17.1791 74.9813 16.9425C75.3765 16.851 75.3765 16.851 75.7797 16.7576C77.7055 16.3024 79.4877 15.6719 81.3 14.76C81.5293 14.6579 81.7587 14.5558 81.9949 14.4506C83.8964 13.5936 85.691 12.5093 87.493 11.391C89.0384 10.44 89.0384 10.44 89.7 10.44C89.7 10.2024 89.7 9.9648 89.7 9.72C90.096 9.72 90.492 9.72 90.9 9.72C90.801 10.5516 90.702 11.3832 90.6 12.24C90.9991 11.8947 90.9991 11.8947 91.4063 11.5425C92.3076 10.869 92.8653 10.5861 93.9 10.44C93.9 10.2024 93.9 9.9648 93.9 9.72C94.395 9.72 94.89 9.72 95.4 9.72C95.4 11.502 95.4 13.284 95.4 15.12C95.202 15.12 95.004 15.12 94.8 15.12C94.7671 15.3455 94.7343 15.5711 94.7004 15.8034C94.6528 16.0977 94.6053 16.3919 94.5563 16.695C94.4884 17.1335 94.4884 17.1335 94.4191 17.5809C94.2 18.36 94.2 18.36 93.3 19.08C92.9813 19.7883 92.6786 20.5077 92.4 21.24C92.598 21.3588 92.796 21.4776 93 21.6C92.8508 23.3903 92.5341 24.7097 91.8 26.28C91.602 26.28 91.404 26.28 91.2 26.28C91.1443 26.5325 91.0886 26.7849 91.0313 27.045C90.5847 28.1168 90.2878 28.4158 89.5125 29.115C88.9371 29.6365 88.9371 29.6365 88.5 30.24C88.4875 31.0799 88.4875 31.9201 88.5 32.76C87.7757 34.0186 87.007 34.7972 85.8 35.28C85.602 35.6364 85.404 35.9928 85.2 36.36C83.9651 37.1149 82.9936 37.592 81.6 37.44C81.6 37.6776 81.6 37.9152 81.6 38.16C81.303 38.2788 81.006 38.3976 80.7 38.52C80.7 38.8764 80.7 39.2328 80.7 39.6C80.502 39.6 80.304 39.6 80.1 39.6C80.1 39.8376 80.1 40.0752 80.1 40.32C78.521 41.2069 77.0085 41.7215 75.3 42.12C74.8452 42.2314 74.8452 42.2314 74.3813 42.345C74.1894 42.3896 73.9976 42.4341 73.8 42.48C73.7536 42.8253 73.7536 42.8253 73.7063 43.1775C73.6042 43.545 73.6042 43.545 73.5 43.92C72.4317 44.3473 71.408 44.4063 70.2938 44.4825C70.0832 44.498 69.8726 44.5136 69.6557 44.5296C69.1372 44.5677 68.6186 44.604 68.1 44.64C68.199 45.5904 68.298 46.5408 68.4 47.52C68.6228 47.4977 68.8455 47.4755 69.075 47.4525C70.155 47.5409 70.6537 48.0645 71.4 48.96C71.4122 49.5598 71.4128 50.1602 71.4 50.76C71.202 50.76 71.004 50.76 70.8 50.76C70.8 50.9976 70.8 51.2352 70.8 51.48C70.602 51.48 70.404 51.48 70.2 51.48C70.101 52.074 70.002 52.668 69.9 53.28C69.3563 53.505 69.3563 53.505 68.7 53.64C68.403 53.4024 68.106 53.1648 67.8 52.92C67.8 53.2764 67.8 53.6328 67.8 54C68.0475 54.2228 68.295 54.4455 68.55 54.675C69.3 55.44 69.3 55.44 69.3938 56.43C69.3473 56.831 69.3473 56.831 69.3 57.24C68.5426 57.6945 68.0064 57.6355 67.1625 57.6225C66.8895 57.6193 66.6165 57.616 66.3352 57.6127C66.1256 57.6085 65.916 57.6043 65.7 57.6C65.7 58.5504 65.7 59.5008 65.7 60.48C65.502 60.48 65.304 60.48 65.1 60.48C65.1 60.7176 65.1 60.9552 65.1 61.2C64.4063 61.2675 64.4063 61.2675 63.6 61.2C63.1545 60.6654 63.1545 60.6654 62.7 60.12C62.403 61.1892 62.106 62.2584 61.8 63.36C61.602 63.36 61.404 63.36 61.2 63.36C61.2 63.5976 61.2 63.8352 61.2 64.08C60.3563 64.17 60.3563 64.17 59.4 64.08C58.6598 63.2806 58.5115 62.8432 58.4438 61.65C58.4623 61.3827 58.4809 61.1154 58.5 60.84C58.104 60.84 57.708 60.84 57.3 60.84C57.201 60.9588 57.102 61.0776 57 61.2C56.5001 61.2146 55.9998 61.2154 55.5 61.2C54.9348 60.0244 54.7521 58.9388 54.6 57.6C54.3869 57.6042 54.1738 57.6084 53.9543 57.6127C53.6786 57.6159 53.4028 57.6192 53.1188 57.6225C52.8438 57.6267 52.5688 57.6309 52.2855 57.6352C51.6 57.6 51.6 57.6 51.3 57.24C51.1875 56.4075 51.1875 56.4075 51.3 55.44C52.05 54.6525 52.05 54.6525 52.8 54C52.8 53.7624 52.8 53.5248 52.8 53.28C51.7605 53.4582 51.7605 53.4582 50.7 53.64C49.2814 51.1899 49.2814 51.1899 49.0125 49.77C49.2931 48.5579 49.824 48.165 50.7 47.52C51.096 47.52 51.492 47.52 51.9 47.52C51.8876 47.2379 51.8753 46.9557 51.8625 46.665C51.9 45.72 51.9 45.72 52.5 45C51.9287 44.3145 50.9204 44.5129 50.1563 44.46C47.845 44.2991 47.845 44.2991 46.8 43.92C46.8 43.5636 46.8 43.2072 46.8 42.84C45.714 42.2842 44.6487 41.9035 43.5 41.58C42.3513 41.2565 41.286 40.8758 40.2 40.32C40.2 39.6072 40.2 38.8944 40.2 38.16C39.985 38.1127 39.77 38.0653 39.5484 38.0166C36.4386 37.2228 34.0961 35.6379 31.9312 32.85C31.5 32.04 31.5 32.04 31.5 30.96C31.698 30.7224 31.896 30.4848 32.1 30.24C31.9267 30.1509 31.7535 30.0618 31.575 29.97C30.0309 28.9406 29.348 27.4245 28.5445 25.6036C28.1811 24.7702 28.1811 24.7702 27.6 23.76C27.525 22.6575 27.525 22.6575 27.6 21.6C27.798 21.3624 27.996 21.1248 28.2 20.88C28.0484 20.6545 27.8968 20.4289 27.7406 20.1966C27.5457 19.9023 27.3508 19.6081 27.15 19.305C26.9551 19.0126 26.7602 18.7203 26.5594 18.4191C26.1 17.64 26.1 17.64 26.1 16.92C25.902 16.8012 25.704 16.6824 25.5 16.56C25.5 16.0848 25.5 15.6096 25.5 15.12C25.302 15.12 25.104 15.12 24.9 15.12C24.9 13.338 24.9 11.556 24.9 9.72ZM54.6 49.32C54.9 50.04 54.9 50.04 54.9 50.04L54.6 49.32Z" fill="#231F20"/>
<path d="M24.9 9.72C26.5086 9.72 26.8642 9.94402 28.1437 10.98C28.4365 11.2139 28.7292 11.4478 29.0309 11.6888C29.2517 11.8707 29.4725 12.0526 29.7 12.24C29.7 11.4084 29.7 10.5768 29.7 9.72C30.9 9.72 30.9 9.72 31.2996 10.1728C31.5473 10.4833 31.5473 10.4833 31.8 10.8C34.5707 12.8613 37.3779 14.2249 40.5117 15.2714C41.1495 15.4976 41.7732 15.7587 42.4008 16.0228C43.869 16.6177 45.3529 16.9683 46.875 17.3025C50.402 18.082 50.402 18.082 51.3 18.72C51.5777 19.4991 51.5777 19.4991 51.6938 20.385C51.7359 20.6792 51.7781 20.9734 51.8215 21.2766C51.8474 21.5021 51.8733 21.7276 51.9 21.96C52.098 21.96 52.296 21.96 52.5 21.96C52.6299 22.2273 52.7599 22.4946 52.8938 22.77C53.5758 24.1038 54.3398 24.982 55.5938 25.47C55.7608 25.4997 55.9279 25.5294 56.1 25.56C56.1 24.966 56.1 24.372 56.1 23.76C56.298 23.76 56.496 23.76 56.7 23.76C56.765 23.1809 56.765 23.1809 56.8313 22.59C56.8869 22.1445 56.9426 21.699 57 21.24C57.0248 20.9727 57.0495 20.7054 57.075 20.43C57.3 19.8 57.3 19.8 57.8625 19.17C59.2746 18.4922 60.5987 18.6191 62.1 18.72C62.3328 18.7311 62.5656 18.7423 62.8055 18.7538C63.77 18.8404 64.4226 19.0181 65.2313 19.665C65.8471 20.7883 65.9384 21.7085 66 23.04C65.901 23.2776 65.802 23.5152 65.7 23.76C65.304 23.76 64.908 23.76 64.5 23.76C64.599 24.354 64.698 24.948 64.8 25.56C65.5425 25.3818 65.5425 25.3818 66.3 25.2C66.399 24.8436 66.498 24.4872 66.6 24.12C66.7941 23.9641 66.9883 23.8082 67.1883 23.6475C68.0155 22.826 68.0565 22.1226 68.2875 20.88C68.8205 18.8794 68.8205 18.8794 69.532 18.2475C70.3526 17.9435 71.1494 17.7902 72 17.64C72.9954 17.4175 73.9881 17.1791 74.9813 16.9425C75.3765 16.851 75.3765 16.851 75.7797 16.7576C77.7055 16.3024 79.4877 15.6719 81.3 14.76C81.5293 14.6579 81.7587 14.5558 81.9949 14.4506C83.8964 13.5936 85.691 12.5093 87.493 11.391C89.0384 10.44 89.0384 10.44 89.7 10.44C89.7 10.2024 89.7 9.9648 89.7 9.72C90.096 9.72 90.492 9.72 90.9 9.72C90.801 10.5516 90.702 11.3832 90.6 12.24C90.9991 11.8947 90.9991 11.8947 91.4063 11.5425C92.3076 10.869 92.8653 10.5861 93.9 10.44C93.9 10.2024 93.9 9.9648 93.9 9.72C94.395 9.72 94.89 9.72 95.4 9.72C95.4 11.502 95.4 13.284 95.4 15.12C95.202 15.12 95.004 15.12 94.8 15.12C94.7671 15.3455 94.7343 15.5711 94.7004 15.8034C94.6528 16.0977 94.6053 16.3919 94.5563 16.695C94.4884 17.1335 94.4884 17.1335 94.4191 17.5809C94.2 18.36 94.2 18.36 93.3 19.08C92.9813 19.7883 92.6786 20.5077 92.4 21.24C92.598 21.3588 92.796 21.4776 93 21.6C92.8508 23.3903 92.5341 24.7097 91.8 26.28C91.602 26.28 91.404 26.28 91.2 26.28C91.1443 26.5325 91.0886 26.7849 91.0313 27.045C90.5847 28.1168 90.2878 28.4158 89.5125 29.115C88.9371 29.6365 88.9371 29.6365 88.5 30.24C88.4875 31.0799 88.4875 31.9201 88.5 32.76C87.7757 34.0186 87.007 34.7972 85.8 35.28C85.602 35.6364 85.404 35.9928 85.2 36.36C83.9651 37.1149 82.9936 37.592 81.6 37.44C81.6 37.6776 81.6 37.9152 81.6 38.16C81.303 38.2788 81.006 38.3976 80.7 38.52C80.7 38.8764 80.7 39.2328 80.7 39.6C80.502 39.6 80.304 39.6 80.1 39.6C80.1 39.8376 80.1 40.0752 80.1 40.32C78.521 41.2069 77.0085 41.7215 75.3 42.12C74.8452 42.2314 74.8452 42.2314 74.3813 42.345C74.1894 42.3896 73.9976 42.4341 73.8 42.48C73.7536 42.8253 73.7536 42.8253 73.7063 43.1775C73.6042 43.545 73.6042 43.545 73.5 43.92C72.4317 44.3473 71.408 44.4063 70.2938 44.4825C70.0832 44.498 69.8726 44.5136 69.6557 44.5296C69.1372 44.5677 68.6186 44.604 68.1 44.64C68.199 45.5904 68.298 46.5408 68.4 47.52C68.6228 47.4977 68.8455 47.4755 69.075 47.4525C70.155 47.5409 70.6537 48.0645 71.4 48.96C71.4122 49.5598 71.4128 50.1602 71.4 50.76C71.202 50.76 71.004 50.76 70.8 50.76C70.8 50.9976 70.8 51.2352 70.8 51.48C70.602 51.48 70.404 51.48 70.2 51.48C70.101 52.074 70.002 52.668 69.9 53.28C69.3563 53.505 69.3563 53.505 68.7 53.64C68.403 53.4024 68.106 53.1648 67.8 52.92C67.8 53.2764 67.8 53.6328 67.8 54C68.0475 54.2228 68.295 54.4455 68.55 54.675C69.3 55.44 69.3 55.44 69.3938 56.43C69.3473 56.831 69.3473 56.831 69.3 57.24C68.5426 57.6945 68.0064 57.6355 67.1625 57.6225C66.8895 57.6193 66.6165 57.616 66.3352 57.6127C66.1256 57.6085 65.916 57.6043 65.7 57.6C65.7 58.5504 65.7 59.5008 65.7 60.48C65.502 60.48 65.304 60.48 65.1 60.48C65.1 60.7176 65.1 60.9552 65.1 61.2C64.4063 61.2675 64.4063 61.2675 63.6 61.2C63.1545 60.6654 63.1545 60.6654 62.7 60.12C62.403 61.1892 62.106 62.2584 61.8 63.36C61.602 63.36 61.404 63.36 61.2 63.36C61.2 63.5976 61.2 63.8352 61.2 64.08C60.3563 64.17 60.3563 64.17 59.4 64.08C58.6598 63.2806 58.5115 62.8432 58.4438 61.65C58.4623 61.3827 58.4809 61.1154 58.5 60.84C58.104 60.84 57.708 60.84 57.3 60.84C57.201 60.9588 57.102 61.0776 57 61.2C56.5001 61.2146 55.9998 61.2154 55.5 61.2C54.9348 60.0244 54.7521 58.9388 54.6 57.6C54.3869 57.6042 54.1738 57.6084 53.9543 57.6127C53.6786 57.6159 53.4028 57.6192 53.1188 57.6225C52.8438 57.6267 52.5688 57.6309 52.2855 57.6352C51.6 57.6 51.6 57.6 51.3 57.24C51.1875 56.4075 51.1875 56.4075 51.3 55.44C52.05 54.6525 52.05 54.6525 52.8 54C52.8 53.7624 52.8 53.5248 52.8 53.28C51.7605 53.4582 51.7605 53.4582 50.7 53.64C49.2814 51.1899 49.2814 51.1899 49.0125 49.77C49.2931 48.5579 49.824 48.165 50.7 47.52C51.096 47.52 51.492 47.52 51.9 47.52C51.8876 47.2379 51.8753 46.9557 51.8625 46.665C51.9 45.72 51.9 45.72 52.5 45C51.9287 44.3145 50.9204 44.5129 50.1563 44.46C47.845 44.2991 47.845 44.2991 46.8 43.92C46.8 43.5636 46.8 43.2072 46.8 42.84C45.714 42.2842 44.6487 41.9035 43.5 41.58C42.3513 41.2565 41.286 40.8758 40.2 40.32C40.2 39.6072 40.2 38.8944 40.2 38.16C39.985 38.1127 39.77 38.0653 39.5484 38.0166C36.4386 37.2228 34.0961 35.6379 31.9312 32.85C31.5 32.04 31.5 32.04 31.5 30.96C31.698 30.7224 31.896 30.4848 32.1 30.24C31.9267 30.1509 31.7535 30.0618 31.575 29.97C30.0309 28.9406 29.348 27.4245 28.5445 25.6036C28.1811 24.7702 28.1811 24.7702 27.6 23.76C27.525 22.6575 27.525 22.6575 27.6 21.6C27.798 21.3624 27.996 21.1248 28.2 20.88C28.0484 20.6545 27.8968 20.4289 27.7406 20.1966C27.5457 19.9023 27.3508 19.6081 27.15 19.305C26.9551 19.0126 26.7602 18.7203 26.5594 18.4191C26.1 17.64 26.1 17.64 26.1 16.92C25.902 16.8012 25.704 16.6824 25.5 16.56C25.5 16.0848 25.5 15.6096 25.5 15.12C25.302 15.12 25.104 15.12 24.9 15.12C24.9 13.338 24.9 11.556 24.9 9.72ZM25.5 10.8C25.8277 14.3056 26.8218 16.9314 28.5375 19.7775C31.4013 22.2429 35.3 22.4767 38.7 23.04C31.5015 23.1143 31.5015 23.1143 28.8 22.68C28.962 24.276 29.4507 25.2232 30.2437 26.505C30.4499 26.8438 30.656 27.1825 30.8684 27.5316C31.7916 28.8593 32.2673 29.4692 33.745 29.6426C34.1576 29.6424 34.5703 29.6364 34.9828 29.6255C35.2009 29.6239 35.4189 29.6224 35.6435 29.6208C36.3375 29.6148 37.0311 29.6013 37.725 29.5875C38.1965 29.5821 38.668 29.5772 39.1395 29.5727C40.2931 29.5609 41.4465 29.5422 42.6 29.52C41.3939 29.8137 40.1876 30.1057 38.9813 30.3975C38.6411 30.4803 38.301 30.5632 37.9506 30.6485C36.3041 31.046 34.6665 31.4275 33 31.68C33.7603 33.8763 35.6239 35.3243 37.3688 36.3375C39.9833 37.3073 42.3344 36.516 44.7246 35.0873C45.5243 34.5663 46.3154 34.0331 47.1 33.48C43.4098 37.3473 43.4098 37.3473 41.1 38.52C41.1 38.8764 41.1 39.2328 41.1 39.6C44.463 41.2 44.463 41.2 48 41.04C49.0309 40.2129 49.87 39.2618 50.7 38.16C50.1545 39.6344 49.3426 40.6565 48.4383 41.8303C47.9371 42.434 47.9371 42.434 48 43.2C49.386 43.2 50.772 43.2 52.2 43.2C52.695 42.012 53.19 40.824 53.7 39.6C53.5347 41.0217 53.2832 42.2457 52.8 43.56C53.394 43.6788 53.988 43.7976 54.6 43.92C53.775 45.675 53.775 45.675 53.1 46.08C53.1 46.3176 53.1 46.5552 53.1 46.8C53.298 46.8 53.496 46.8 53.7 46.8C53.502 47.394 53.304 47.988 53.1 48.6C52.407 48.4812 51.714 48.3624 51 48.24C50.703 48.9528 50.703 48.9528 50.4 49.68C50.895 49.5612 51.39 49.4424 51.9 49.32C51.702 49.5576 51.504 49.7952 51.3 50.04C51.399 50.3964 51.498 50.7528 51.6 51.12C51.798 50.8824 51.996 50.6448 52.2 50.4C53.0804 50.5321 53.3593 50.7112 54 51.48C53.9938 51.0939 53.9876 50.7078 53.9813 50.31C53.9957 49.2668 54.0395 48.497 54.3 47.52C54.498 47.52 54.696 47.52 54.9 47.52C54.9 47.7576 54.9 47.9952 54.9 48.24C55.098 48.24 55.296 48.24 55.5 48.24C55.5866 47.9504 55.6733 47.6609 55.7625 47.3625C56.1 46.44 56.1 46.44 56.7 46.08C56.3446 47.2309 55.9794 48.3769 55.6125 49.5225C55.5131 49.8448 55.4137 50.1671 55.3113 50.4991C54.6953 52.4029 54.0381 53.8408 52.8476 55.3105C52.4351 55.7842 52.4351 55.7842 52.5 56.52C53.8806 56.5837 54.5351 56.5589 55.8 55.8C55.8 57.2256 55.8 58.6512 55.8 60.12C57.125 59.325 57.4798 58.7524 58.2 57.24C58.2 56.8836 58.2 56.5272 58.2 56.16C58.398 56.16 58.596 56.16 58.8 56.16C58.7876 56.5016 58.7753 56.8431 58.7625 57.195C58.7664 58.3489 58.868 59.454 59.025 60.5925C59.0876 61.0471 59.0876 61.0471 59.1516 61.5108C59.3469 62.3443 59.3469 62.3443 60.0234 62.7455C60.2137 62.8295 60.404 62.9135 60.6 63C61.5417 60.5516 61.6004 58.4762 61.5 55.8C61.698 55.8 61.896 55.8 62.1 55.8C62.1278 56.1675 62.1278 56.1675 62.1563 56.5425C62.4792 57.9436 63.077 59.0524 63.9 60.12C64.098 60.12 64.296 60.12 64.5 60.12C64.5081 59.415 64.5139 58.71 64.5188 58.005C64.524 57.4161 64.524 57.4161 64.5293 56.8153C64.5592 55.8174 64.5592 55.8174 64.2 55.08C64.398 55.3176 64.596 55.5552 64.8 55.8C66.0056 56.7645 66.6759 56.6359 68.1 56.52C68.1 56.2824 68.1 56.0448 68.1 55.8C67.8896 55.5773 67.6793 55.3545 67.4625 55.125C65.5255 52.8867 64.631 49.5431 64.2 46.44C64.398 47.034 64.596 47.628 64.8 48.24C64.998 48.24 65.196 48.24 65.4 48.24C65.4 48.0024 65.4 47.7648 65.4 47.52C66.2392 48.2643 66.3081 48.652 66.5063 49.9275C66.5372 50.321 66.5681 50.7146 66.6 51.12C66.798 51.0012 66.996 50.8824 67.2 50.76C67.2 50.5224 67.2 50.2848 67.2 50.04C67.7813 50.3325 67.7813 50.3325 68.4 50.76C68.499 51.1164 68.598 51.4728 68.7 51.84C68.898 51.84 69.096 51.84 69.3 51.84C69.1032 50.5404 69.1032 50.5404 68.7 49.32C69.096 49.4388 69.492 49.5576 69.9 49.68C69.801 49.3236 69.702 48.9672 69.6 48.6C68.4852 48.5277 68.1684 48.5453 67.2 49.32C66.903 48.0726 66.903 48.0726 66.6 46.8C66.798 46.8 66.996 46.8 67.2 46.8C66.7045 45.5117 66.0651 44.3706 65.4 43.2C66.093 43.3188 66.786 43.4376 67.5 43.56C67.302 42.372 67.104 41.184 66.9 39.96C67.494 41.5638 67.494 41.5638 68.1 43.2C69.585 43.2 71.07 43.2 72.6 43.2C72.6 42.9624 72.6 42.7248 72.6 42.48C72.2659 42.0791 72.2659 42.0791 71.925 41.67C71.0863 40.6635 70.5267 39.7178 69.9 38.52C70.1077 38.7929 70.1077 38.7929 70.3195 39.0713C71.407 40.3711 72.2028 41.2235 73.7813 41.265C75.8288 41.0795 77.5923 40.4242 79.2 38.88C78.9394 38.667 78.6787 38.454 78.4102 38.2345C78.0609 37.9472 77.7117 37.6599 77.3625 37.3725C77.1061 37.1633 77.1061 37.1633 76.8445 36.9499C73.7227 34.3744 73.7227 34.3744 73.2 33.12C73.5051 33.3741 73.5051 33.3741 73.8164 33.6333C76.2264 35.568 78.6139 37.1257 81.6 36.72C83.6651 35.894 85.8678 34.4015 87.3 32.4C87.3 32.1624 87.3 31.9248 87.3 31.68C87.0882 31.6383 86.8764 31.5965 86.6581 31.5535C85.697 31.3638 84.736 31.1732 83.775 30.9825C83.4417 30.9168 83.1083 30.8512 82.7648 30.7835C82.4439 30.7197 82.1229 30.6559 81.7922 30.5902C81.4968 30.5317 81.2015 30.4733 80.8972 30.4131C80.2212 30.2663 79.5634 30.0922 78.9 29.88C79.2765 29.8834 79.2765 29.8834 79.6605 29.8869C80.6024 29.8895 81.5435 29.8808 82.4852 29.8646C83.0889 29.8576 83.6927 29.8634 84.2965 29.8695C86.8533 29.8315 86.8533 29.8315 89.0156 28.3584C89.8077 27.3507 90.4849 26.2988 91.05 25.0875C91.2681 24.633 91.2681 24.633 91.4906 24.1692C91.8435 23.4343 91.8435 23.4343 91.8 22.68C91.2562 22.7319 90.7125 22.7846 90.1688 22.8375C89.866 22.8667 89.5632 22.896 89.2512 22.9261C88.4759 23.0101 87.707 23.1093 86.9344 23.22C85.353 23.4346 83.7707 23.5215 82.1813 23.6025C81.893 23.618 81.6047 23.6336 81.3076 23.6496C80.6051 23.6874 79.9026 23.7241 79.2 23.76C79.2 23.5224 79.2 23.2848 79.2 23.04C79.5361 23.053 79.8721 23.066 80.2184 23.0794C82.4804 23.077 84.6787 22.3822 86.8756 21.7921C87.5062 21.6249 88.1394 21.4726 88.773 21.323C91.0282 20.6805 92.1724 19.6934 93.423 17.3391C94.246 15.3738 95.1 13.0371 95.1 10.8C93.8271 11.3783 92.6189 12.0877 91.4063 12.825C91.1159 13.0004 91.1159 13.0004 90.8197 13.1794C90.3462 13.4656 89.8731 13.7527 89.4 14.04C89.4 14.2776 89.4 14.5152 89.4 14.76C89.1386 14.8027 88.8772 14.8454 88.6078 14.8894C87.6163 15.1163 86.8043 15.4639 85.875 15.93C84.3356 16.6547 82.7976 17.281 81.2063 17.82C80.9855 17.896 80.7647 17.9719 80.5372 18.0502C79.1676 18.4997 77.8104 18.8259 76.4063 19.0814C73.0733 19.4995 73.0733 19.4995 70.3617 21.5058C69.9993 22.6181 69.7891 23.6698 69.6 24.84C68.7617 26.8702 67.4323 28.2632 65.7 29.16C65.304 29.16 64.908 29.16 64.5 29.16C63.9445 27.6953 63.7361 26.3193 63.5625 24.7275C63.5122 24.276 63.462 23.8244 63.4102 23.3592C63.3738 23.0163 63.3375 22.6733 63.3 22.32C63.795 22.32 64.29 22.32 64.8 22.32C64.628 21.2878 64.5416 20.9299 63.9 20.16C62.2454 19.7464 60.4837 19.5821 58.8 19.8C57.9765 20.7883 57.7774 21.9362 57.45 23.2425C57.3507 23.6309 57.3507 23.6309 57.2494 24.0272C56.7918 25.8433 56.4049 27.6574 56.1 29.52C53.6882 28.6719 52.0652 27.4132 50.7 24.84C50.5176 24.085 50.3428 23.3274 50.175 22.5675C49.8244 21.462 49.5816 20.7287 48.657 20.2231C47.1559 19.7113 45.6084 19.5011 44.0654 19.2477C42.5802 18.9599 41.1421 18.4823 39.6938 18C39.4252 17.9144 39.1566 17.8289 38.88 17.7407C37.3479 17.2358 35.9283 16.604 34.4876 15.8013C33.7936 15.4218 33.0879 15.1315 32.3625 14.85C30.1532 13.9136 28.1448 12.5156 26.1 11.16C25.902 11.0412 25.704 10.9224 25.5 10.8ZM54.6 49.32C54.9 50.04 54.9 50.04 54.9 50.04L54.6 49.32Z" fill="#DFDCDB"/>
<path d="M82.2 29.88C83.982 29.88 85.764 29.88 87.6 29.88C87.6 30.1176 87.6 30.3552 87.6 30.6C87.897 30.6 88.194 30.6 88.5 30.6C88.6299 31.6908 88.6847 32.4539 88.1309 33.3717C87.3637 34.3105 86.8557 34.8577 85.8 35.28C85.602 35.6364 85.404 35.9928 85.2 36.36C83.9651 37.1149 82.9936 37.592 81.6 37.44C81.6 37.6776 81.6 37.9152 81.6 38.16C81.1545 38.3382 81.1545 38.3382 80.7 38.52C80.7 38.8764 80.7 39.2328 80.7 39.6C80.502 39.6 80.304 39.6 80.1 39.6C80.1 39.8376 80.1 40.0752 80.1 40.32C78.521 41.2069 77.0085 41.7215 75.3 42.12C74.9968 42.1943 74.6936 42.2685 74.3812 42.345C74.1894 42.3896 73.9976 42.4341 73.8 42.48C73.7691 42.7102 73.7381 42.9404 73.7062 43.1775C73.6382 43.4225 73.5701 43.6676 73.5 43.92C72.4317 44.3473 71.408 44.4063 70.2937 44.4825C70.0832 44.4981 69.8726 44.5136 69.6557 44.5296C69.1372 44.5677 68.6186 44.604 68.1 44.64C68.2485 46.0656 68.2485 46.0656 68.4 47.52C68.7341 47.4866 68.7341 47.4866 69.075 47.4525C70.155 47.5409 70.6537 48.0645 71.4 48.96C71.4122 49.5598 71.4128 50.1602 71.4 50.76C71.202 50.76 71.004 50.76 70.8 50.76C70.8 50.9976 70.8 51.2352 70.8 51.48C70.602 51.48 70.404 51.48 70.2 51.48C70.101 52.074 70.002 52.668 69.9 53.28C69.3562 53.505 69.3562 53.505 68.7 53.64C68.2545 53.2836 68.2545 53.2836 67.8 52.92C67.8 53.2764 67.8 53.6328 67.8 54C68.0475 54.2228 68.295 54.4455 68.55 54.675C69.3 55.44 69.3 55.44 69.3937 56.43C69.3628 56.6973 69.3319 56.9646 69.3 57.24C68.5426 57.6945 68.0064 57.6355 67.1625 57.6225C66.753 57.6176 66.753 57.6176 66.3352 57.6127C66.0208 57.6064 66.0208 57.6064 65.7 57.6C65.7 58.5504 65.7 59.5008 65.7 60.48C65.502 60.48 65.304 60.48 65.1 60.48C65.1 60.7176 65.1 60.9552 65.1 61.2C64.4062 61.2675 64.4062 61.2675 63.6 61.2C63.303 60.8436 63.006 60.4872 62.7 60.12C62.403 61.1892 62.106 62.2584 61.8 63.36C61.602 63.36 61.404 63.36 61.2 63.36C61.2 63.5976 61.2 63.8352 61.2 64.08C60.3563 64.17 60.3563 64.17 59.4 64.08C58.6598 63.2806 58.5115 62.8432 58.4438 61.65C58.4623 61.3827 58.4809 61.1154 58.5 60.84C58.104 60.84 57.708 60.84 57.3 60.84C57.201 60.9588 57.102 61.0776 57 61.2C56.5001 61.2146 55.9998 61.2154 55.5 61.2C54.9348 60.0244 54.7521 58.9388 54.6 57.6C54.3869 57.6042 54.1738 57.6084 53.9543 57.6127C53.6786 57.6159 53.4028 57.6192 53.1188 57.6225C52.8438 57.6267 52.5688 57.6309 52.2855 57.6352C51.6 57.6 51.6 57.6 51.3 57.24C51.1875 56.4075 51.1875 56.4075 51.3 55.44C52.05 54.6525 52.05 54.6525 52.8 54C52.8 53.7624 52.8 53.5248 52.8 53.28C51.7605 53.4582 51.7605 53.4582 50.7 53.64C49.2814 51.1899 49.2814 51.1899 49.0125 49.77C49.2931 48.5579 49.824 48.165 50.7 47.52C51.096 47.52 51.492 47.52 51.9 47.52C51.9 46.926 51.9 46.332 51.9 45.72C52.593 45.4824 53.286 45.2448 54 45C53.901 45.3564 53.802 45.7128 53.7 46.08C53.502 46.08 53.304 46.08 53.1 46.08C53.1 46.3176 53.1 46.5552 53.1 46.8C53.298 46.8 53.496 46.8 53.7 46.8C53.5875 47.6775 53.5875 47.6775 53.4 48.6C52.5415 49.1151 51.9199 48.816 51 48.6C50.901 48.8376 50.802 49.0752 50.7 49.32C51.294 49.1418 51.294 49.1418 51.9 48.96C51.9 49.3164 51.9 49.6728 51.9 50.04C51.702 50.04 51.504 50.04 51.3 50.04C51.399 50.2776 51.498 50.5152 51.6 50.76C51.798 50.5224 51.996 50.2848 52.2 50.04C52.8188 50.175 52.8188 50.175 53.4 50.4C53.499 50.4 53.598 50.4 53.7 50.4C53.7433 50.0585 53.7866 49.7169 53.8313 49.365C54 48.24 54 48.24 54.3 47.52C54.498 47.52 54.696 47.52 54.9 47.52C54.9 47.7576 54.9 47.9952 54.9 48.24C55.098 48.24 55.296 48.24 55.5 48.24C55.599 47.646 55.698 47.052 55.8 46.44C56.2455 46.2618 56.2455 46.2618 56.7 46.08C55.996 50.0733 54.7503 53.4384 52.5 56.52C53.8461 56.33 54.8212 56.0538 56.1 55.44C56.001 56.9844 55.902 58.5288 55.8 60.12C56.904 58.9026 57.5936 57.8069 58.2 56.16C58.398 56.16 58.596 56.16 58.8 56.16C59.097 58.1796 59.394 60.1992 59.7 62.28C59.997 62.3988 60.294 62.5176 60.6 62.64C61.2402 60.3866 61.3769 58.1681 61.5 55.8C61.698 55.8 61.896 55.8 62.1 55.8C62.7 57.24 63.3 58.68 63.9 60.12C64.098 60.12 64.296 60.12 64.5 60.12C64.401 58.4568 64.302 56.7936 64.2 55.08C65.4 55.8 65.4 55.8 65.7 56.16C66.1042 56.2431 66.5111 56.3082 66.9187 56.3625C67.3086 56.4145 67.6984 56.4665 68.1 56.52C68.1 56.2824 68.1 56.0448 68.1 55.8C67.9206 55.7137 67.7411 55.6274 67.5562 55.5384C65.5464 54.1344 64.7613 50.5794 64.0699 48.0839C63.9 47.16 63.9 47.16 64.2 46.08C64.8 46.8 64.8 46.8 64.8 48.24C64.998 48.24 65.196 48.24 65.4 48.24C65.4 48.0024 65.4 47.7648 65.4 47.52C65.697 47.6388 65.994 47.7576 66.3 47.88C66.6306 48.8615 66.9 49.6949 66.9 50.76C67.0485 50.4036 67.0485 50.4036 67.2 50.04C67.596 50.1588 67.992 50.2776 68.4 50.4C68.5485 51.1128 68.5485 51.1128 68.7 51.84C68.898 51.84 69.096 51.84 69.3 51.84C69.201 51.5653 69.102 51.2906 69 51.0075C68.7 50.04 68.7 50.04 68.7 48.96C68.0368 48.9221 68.0368 48.9221 67.2 49.32C66.6 48.24 66.6 48.24 66.6 46.8C66.798 46.8 66.996 46.8 67.2 46.8C67.0701 46.6005 66.9401 46.4009 66.8062 46.1953C66.5557 45.8041 66.5557 45.8041 66.3 45.405C66.1329 45.1461 65.9659 44.8871 65.7937 44.6203C65.4 43.92 65.4 43.92 65.4 43.2C66.093 43.3188 66.786 43.4376 67.5 43.56C67.3453 43.1739 67.1906 42.7878 67.0312 42.39C66.5982 41.3091 66.5825 40.7403 66.9 39.6C67.1015 40.0641 67.3011 40.5293 67.5 40.995C67.6114 41.254 67.7227 41.5129 67.8375 41.7797C68.1 42.48 68.1 42.48 68.1 43.2C69.585 43.2 71.07 43.2 72.6 43.2C72.6 42.9624 72.6 42.7248 72.6 42.48C72.1545 42.3018 72.1545 42.3018 71.7 42.12C71.1527 41.3761 71.1527 41.3761 70.5937 40.4775C70.3136 40.0313 70.3136 40.0313 70.0277 39.5761C69.816 39.2315 69.816 39.2315 69.6 38.88C69.699 38.6424 69.798 38.4048 69.9 38.16C70.1077 38.4329 70.1077 38.4329 70.3195 38.7113C71.407 40.0111 72.2028 40.8635 73.7812 40.905C75.4821 40.7536 77.364 40.3632 78.6 38.88C78.361 38.667 78.122 38.454 77.8758 38.2345C74.2482 34.993 74.2482 34.993 73.2 33.84C73.2 33.6024 73.2 33.3648 73.2 33.12C73.8365 33.4993 74.4698 33.8838 75.0996 34.2788C77.2338 35.6016 79.1438 36.6232 81.6 36.36C83.1648 35.7341 84.4173 34.7546 85.766 33.6248C86.3608 33.1512 86.9552 32.7651 87.6 32.4C87.6 32.0436 87.6 31.6872 87.6 31.32C87.3277 31.3349 87.0555 31.3497 86.775 31.365C85.1266 31.3732 83.5156 30.9565 81.9 30.6C81.999 30.3624 82.098 30.1248 82.2 29.88ZM54.6 49.32C54.9 50.04 54.9 50.04 54.9 50.04L54.6 49.32Z" fill="#ECECEC"/>
<path d="M89.7 9.72C90.096 9.72 90.492 9.72 90.9 9.72C90.801 10.5516 90.702 11.3832 90.6 12.24C90.9991 11.8947 90.9991 11.8947 91.4063 11.5425C92.3076 10.869 92.8653 10.5861 93.9 10.44C93.9 10.2024 93.9 9.9648 93.9 9.72C94.395 9.72 94.89 9.72 95.4 9.72C95.4 11.502 95.4 13.284 95.4 15.12C95.202 15.12 95.004 15.12 94.8 15.12C94.7671 15.3455 94.7343 15.5711 94.7004 15.8034C94.629 16.2448 94.629 16.2448 94.5563 16.695C94.4884 17.1335 94.4884 17.1335 94.4191 17.5809C94.2 18.36 94.2 18.36 93.3 19.08C92.9813 19.7883 92.6786 20.5077 92.4 21.24C92.598 21.3588 92.796 21.4776 93 21.6C92.8508 23.3903 92.5341 24.7097 91.8 26.28C91.602 26.28 91.404 26.28 91.2 26.28C91.1165 26.6587 91.1165 26.6587 91.0313 27.045C90.4241 28.5021 89.6813 29.4255 88.5 30.24C87.3947 30.4926 86.3388 30.4467 85.2188 30.375C84.9278 30.3653 84.6367 30.3555 84.3369 30.3455C83.6243 30.3202 82.9121 30.2815 82.2 30.24C83.982 30.5964 85.764 30.9528 87.6 31.32C87.501 31.6764 87.402 32.0328 87.3 32.4C87.3 32.1624 87.3 31.9248 87.3 31.68C86.8023 31.7009 86.8023 31.7009 86.2945 31.7222C84.7506 31.7214 83.2947 31.3795 81.7875 31.005C81.5172 30.9424 81.2469 30.8797 80.9684 30.8152C80.7104 30.7525 80.4525 30.6899 80.1867 30.6253C79.9538 30.5688 79.7208 30.5122 79.4808 30.4539C78.9 30.24 78.9 30.24 78.3 29.52C78.7061 29.5206 78.7061 29.5206 79.1204 29.5212C80.1332 29.5176 81.1454 29.5044 82.158 29.4848C82.5947 29.4783 83.0315 29.4756 83.4682 29.4768C86.3446 29.5874 86.3446 29.5874 88.875 28.2038C89.6855 27.1438 90.3083 25.9677 90.8813 24.705C91.0572 24.3235 91.2332 23.9421 91.4145 23.5491C91.5417 23.2623 91.6689 22.9755 91.8 22.68C91.4183 22.758 91.0366 22.8359 90.6434 22.9163C86.797 23.6605 83.0921 23.8878 79.2 23.76C79.2 23.5224 79.2 23.2848 79.2 23.04C79.4021 23.0058 79.6041 22.9716 79.8123 22.9364C86.9172 22.2663 86.9172 22.2663 92.7563 18.225C93.8611 15.9223 94.4874 13.3406 95.1 10.8C94.7639 11.0339 94.4279 11.2678 94.0816 11.5088C93.6399 11.8126 93.1981 12.1164 92.7563 12.42C92.5349 12.5745 92.3135 12.7291 92.0854 12.8883C91.8717 13.0345 91.658 13.1806 91.4379 13.3313C91.2415 13.467 91.0451 13.6027 90.8428 13.7426C90.3 14.04 90.3 14.04 89.4 14.04C89.4 14.2776 89.4 14.5152 89.4 14.76C89.1645 14.8514 88.929 14.9428 88.6863 15.037C88.2136 15.2229 88.2136 15.2229 87.7313 15.4125C87.4215 15.5336 87.1117 15.6547 86.7926 15.7795C85.7855 16.19 85.7855 16.19 84.7781 16.7358C83.6433 17.3086 82.5033 17.7437 81.3188 18.135C81.0925 18.2124 80.8662 18.2898 80.6331 18.3695C79.2233 18.8346 77.8205 19.1929 76.3781 19.4822C76.0533 19.5507 75.7284 19.6192 75.3937 19.6898C74.7527 19.8214 74.1098 19.9408 73.4655 20.0466C72.5973 20.2281 71.8869 20.4019 71.1 20.88C70.5627 21.9103 70.3967 22.9395 70.2 24.12C69.2302 26.5004 67.7901 28.5168 65.7 29.52C64.8668 29.3934 64.8668 29.3934 64.2 29.16C63.9149 27.8297 63.9149 26.8904 64.2 25.56C65.2395 25.3818 65.2395 25.3818 66.3 25.2C66.399 24.8436 66.498 24.4872 66.6 24.12C66.7941 23.9641 66.9883 23.8082 67.1883 23.6475C68.0155 22.826 68.0566 22.1226 68.2875 20.88C68.8205 18.8794 68.8205 18.8794 69.532 18.2475C70.3526 17.9435 71.1494 17.7902 72 17.64C72.9954 17.4175 73.9881 17.1791 74.9813 16.9425C75.2448 16.8815 75.5083 16.8205 75.7797 16.7576C77.7055 16.3024 79.4878 15.6719 81.3 14.76C81.5293 14.6579 81.7587 14.5558 81.9949 14.4506C83.8964 13.5936 85.691 12.5093 87.493 11.391C89.0384 10.44 89.0384 10.44 89.7 10.44C89.7 10.2024 89.7 9.9648 89.7 9.72Z" fill="#DEDDDE"/>
<path d="M29.7 9.72C30.9 9.72 30.9 9.72 31.2996 10.1728C31.4647 10.3798 31.6299 10.5868 31.8 10.8C34.5707 12.8613 37.3779 14.2249 40.5117 15.2714C41.1495 15.4976 41.7732 15.7587 42.4008 16.0228C43.869 16.6177 45.3529 16.9683 46.875 17.3025C50.402 18.082 50.402 18.082 51.3 18.72C51.5777 19.4991 51.5777 19.4991 51.6937 20.385C51.7359 20.6792 51.7781 20.9734 51.8215 21.2766C51.8474 21.5021 51.8733 21.7276 51.9 21.96C52.098 21.96 52.296 21.96 52.5 21.96C52.6299 22.2273 52.7599 22.4946 52.8937 22.77C53.6796 24.3067 54.7393 25.1943 56.1 25.92C56.001 26.7516 55.902 27.5832 55.8 28.44C54.201 28.2895 53.3151 28.0468 52.2 26.64C50.9225 24.5326 50.1808 22.7767 50.1 20.16C49.7786 20.1122 49.4573 20.0644 49.1262 20.0152C48.707 19.951 48.2879 19.8868 47.8687 19.8225C47.6566 19.7912 47.4445 19.7599 47.226 19.7276C45.634 19.4808 45.634 19.4808 45.3 19.08C44.627 18.9105 43.9515 18.7558 43.275 18.6075C40.021 17.86 36.9551 16.6491 33.9 15.12C33.3503 14.8567 32.8003 14.5942 32.25 14.3325C31.5858 14.0159 30.9392 13.7035 30.3 13.32C30.3 12.9636 30.3 12.6072 30.3 12.24C30.102 12.24 29.904 12.24 29.7 12.24C29.7 11.4084 29.7 10.5768 29.7 9.72Z" fill="#E74507"/>
<path d="M89.7 9.72C90.096 9.72 90.492 9.72 90.9 9.72C90.801 10.5516 90.702 11.3832 90.6 12.24C90.402 12.24 90.204 12.24 90 12.24C90 12.5964 90 12.9528 90 13.32C87.8051 14.7714 85.4795 15.6565 83.1 16.56C82.8926 16.6394 82.6853 16.7189 82.4716 16.8007C74.5317 19.8401 74.5317 19.8401 70.8 20.16C70.7559 20.3563 70.7118 20.5526 70.6664 20.7548C69.8738 23.9525 68.7049 26.4239 66.2789 28.1602C65.7 28.44 65.7 28.44 64.5 28.44C64.401 27.4896 64.302 26.5392 64.2 25.56C65.2395 25.3818 65.2395 25.3818 66.3 25.2C66.399 24.8436 66.498 24.4872 66.6 24.12C66.7941 23.9641 66.9883 23.8082 67.1883 23.6475C68.0155 22.826 68.0565 22.1226 68.2875 20.88C68.8205 18.8794 68.8205 18.8794 69.532 18.2475C70.3526 17.9435 71.1494 17.7902 72 17.64C72.9954 17.4175 73.9881 17.1791 74.9812 16.9425C75.2447 16.8815 75.5082 16.8205 75.7797 16.7576C77.7055 16.3024 79.4877 15.6719 81.3 14.76C81.5293 14.6579 81.7586 14.5558 81.9949 14.4506C83.8964 13.5936 85.6909 12.5093 87.493 11.391C89.0384 10.44 89.0384 10.44 89.7 10.44C89.7 10.2024 89.7 9.9648 89.7 9.72Z" fill="#E74507"/>
<path d="M63.9 46.08C64.3455 46.4364 64.3455 46.4364 64.8 46.8C64.8 47.2752 64.8 47.7504 64.8 48.24C64.998 48.24 65.196 48.24 65.4 48.24C65.4 48.0024 65.4 47.7648 65.4 47.52C65.697 47.6388 65.994 47.7576 66.3 47.88C66.6306 48.8615 66.9 49.6949 66.9 50.76C66.999 50.5224 67.098 50.2848 67.2 50.04C67.596 50.1588 67.992 50.2776 68.4 50.4C68.499 50.8752 68.598 51.3504 68.7 51.84C68.898 51.84 69.096 51.84 69.3 51.84C69.201 51.5653 69.102 51.2906 69 51.0075C68.7 50.04 68.7 50.04 68.7 48.96C68.997 49.0788 69.294 49.1976 69.6 49.32C69.798 48.9636 69.996 48.6072 70.2 48.24C71.1 48.6 71.1 48.6 71.4 48.96C71.4122 49.5598 71.4128 50.1602 71.4 50.76C71.202 50.76 71.004 50.76 70.8 50.76C70.8 50.9976 70.8 51.2352 70.8 51.48C70.602 51.48 70.404 51.48 70.2 51.48C70.101 52.074 70.002 52.668 69.9 53.28C69.3563 53.505 69.3563 53.505 68.7 53.64C68.403 53.4024 68.106 53.1648 67.8 52.92C67.8 53.2764 67.8 53.6328 67.8 54C68.0475 54.2228 68.295 54.4455 68.55 54.675C69.3 55.44 69.3 55.44 69.3938 56.43C69.3628 56.6973 69.3319 56.9646 69.3 57.24C68.5426 57.6945 68.0064 57.6355 67.1625 57.6225C66.8895 57.6193 66.6165 57.616 66.3352 57.6127C66.1256 57.6085 65.916 57.6043 65.7 57.6C65.7186 57.8822 65.7371 58.1643 65.7563 58.455C65.7377 58.7669 65.7191 59.0787 65.7 59.4C65.403 59.6376 65.106 59.8752 64.8 60.12C64.8 58.6944 64.8 57.2688 64.8 55.8C66.4335 56.1564 66.4335 56.1564 68.1 56.52C68.1 56.2824 68.1 56.0448 68.1 55.8C67.8308 55.6705 67.8308 55.6705 67.5563 55.5384C65.5427 54.1319 64.7689 50.5896 64.0992 48.0839C63.9 47.16 63.9 47.16 63.9 46.08Z" fill="#ECECEC"/>
<path d="M64.2 55.08C64.497 55.1988 64.794 55.3176 65.1 55.44C65.1 56.8656 65.1 58.2912 65.1 59.76C65.298 59.6412 65.496 59.5224 65.7 59.4C65.7 59.7564 65.7 60.1128 65.7 60.48C65.502 60.48 65.304 60.48 65.1 60.48C65.1 60.7176 65.1 60.9552 65.1 61.2C64.4062 61.2675 64.4062 61.2675 63.6 61.2C63.303 60.8436 63.006 60.4872 62.7 60.12C62.403 61.1892 62.106 62.2584 61.8 63.36C61.602 63.36 61.404 63.36 61.2 63.36C61.2 63.5976 61.2 63.8352 61.2 64.08C60.3562 64.17 60.3562 64.17 59.4 64.08C58.6598 63.2806 58.5115 62.8432 58.4437 61.65C58.4623 61.3827 58.4809 61.1154 58.5 60.84C58.104 60.84 57.708 60.84 57.3 60.84C57.201 60.9588 57.102 61.0776 57 61.2C56.5001 61.2146 55.9998 61.2154 55.5 61.2C55.1985 60.1146 55.169 59.3849 55.1812 58.2525C55.184 57.9281 55.1867 57.6037 55.1894 57.2695C55.1929 57.0222 55.1964 56.7748 55.2 56.52C55.002 56.4012 54.804 56.2824 54.6 56.16C55.095 55.9224 55.59 55.6848 56.1 55.44C56.001 56.9844 55.902 58.5288 55.8 60.12C56.904 58.9026 57.5936 57.8069 58.2 56.16C58.398 56.16 58.596 56.16 58.8 56.16C59.097 58.1796 59.394 60.1992 59.7 62.28C59.997 62.3988 60.294 62.5176 60.6 62.64C61.2402 60.3866 61.3769 58.1681 61.5 55.8C61.698 55.8 61.896 55.8 62.1 55.8C62.7 57.24 63.3 58.68 63.9 60.12C64.098 60.12 64.296 60.12 64.5 60.12C64.401 58.4568 64.302 56.7936 64.2 55.08Z" fill="#E6E5E5"/>
<path d="M90 12.24C90.297 12.4182 90.297 12.4182 90.6 12.6C90.501 12.8376 90.402 13.0752 90.3 13.32C90.597 13.4982 90.597 13.4982 90.9 13.68C90.405 13.7988 89.91 13.9176 89.4 14.04C89.4 14.2776 89.4 14.5152 89.4 14.76C89.1645 14.8514 88.929 14.9428 88.6863 15.037C88.2136 15.2229 88.2136 15.2229 87.7313 15.4125C87.4215 15.5336 87.1117 15.6547 86.7926 15.7795C85.7855 16.19 85.7855 16.19 84.7781 16.7358C83.6433 17.3086 82.5033 17.7437 81.3188 18.135C81.0925 18.2124 80.8662 18.2898 80.6331 18.3695C79.2233 18.8346 77.8205 19.1929 76.3781 19.4822C76.0533 19.5507 75.7284 19.6192 75.3937 19.6898C74.7527 19.8214 74.1098 19.9408 73.4655 20.0466C72.5972 20.2281 71.8868 20.4019 71.1 20.88C70.5627 21.9103 70.3967 22.9395 70.2 24.12C69.2302 26.5004 67.7901 28.5168 65.7 29.52C64.8668 29.3934 64.8668 29.3934 64.2 29.16C64.101 28.566 64.002 27.972 63.9 27.36C64.098 27.36 64.296 27.36 64.5 27.36C64.5 27.7164 64.5 28.0728 64.5 28.44C66.9639 27.4879 68.2864 26.1323 69.6 23.4C69.8653 22.5497 70.0987 21.6976 70.316 20.828C70.5 20.16 70.5 20.16 70.8 19.8C71.3609 19.69 71.9239 19.5955 72.4875 19.5075C76.2937 18.8192 79.9099 17.3943 83.5688 15.9975C83.9365 15.8578 84.3043 15.7181 84.6833 15.5741C85.0336 15.4387 85.384 15.3032 85.7449 15.1636C86.0588 15.0427 86.3726 14.9218 86.696 14.7972C87.6278 14.411 87.6278 14.411 88.5784 13.8123C89.4 13.32 89.4 13.32 90 13.32C90 12.9636 90 12.6072 90 12.24Z" fill="#DCCEC9"/>
<path d="M62.1 18.72C62.3328 18.7311 62.5656 18.7423 62.8055 18.7538C63.77 18.8404 64.4226 19.0181 65.2312 19.665C65.8471 20.7883 65.9384 21.7085 66 23.04C65.901 23.2776 65.802 23.5152 65.7 23.76C65.304 23.76 64.908 23.76 64.5 23.76C64.401 24.948 64.302 26.136 64.2 27.36C64.002 27.36 63.804 27.36 63.6 27.36C63.3142 25.6453 63.275 24.06 63.3 22.32C63.795 22.32 64.29 22.32 64.8 22.32C64.4972 21.3931 64.4972 21.3931 63.9 20.52C62.2464 19.9936 60.5026 20.123 58.8 20.16C58.0271 22.415 57.3173 24.6767 56.7 27C56.601 27 56.502 27 56.4 27C56.301 25.9308 56.202 24.8616 56.1 23.76C56.298 23.76 56.496 23.76 56.7 23.76C56.7433 23.3739 56.7866 22.9878 56.8312 22.59C56.8869 22.1445 56.9426 21.699 57 21.24C57.0371 20.8391 57.0371 20.8391 57.075 20.43C57.3 19.8 57.3 19.8 57.8625 19.17C59.2746 18.4922 60.5987 18.6191 62.1 18.72Z" fill="#E3E3E3"/>
<path d="M31.5 30.96C31.797 31.0788 32.094 31.1976 32.4 31.32C32.4 31.6764 32.4 32.0328 32.4 32.4C32.5713 32.4343 32.7426 32.4687 32.9191 32.5041C33.7518 32.817 34.2277 33.3021 34.8937 33.975C36.5479 35.5546 37.9412 36.5839 40.152 36.4612C42.4551 36.1014 44.2693 35.0516 46.1906 33.5194C46.4923 33.3217 46.4923 33.3217 46.8 33.12C46.998 33.2388 47.196 33.3576 47.4 33.48C42.9346 38.52 42.9346 38.52 41.1 38.52C41.1 38.1636 41.1 37.8072 41.1 37.44C40.506 37.44 39.912 37.44 39.3 37.44C39.201 37.6776 39.102 37.9152 39 38.16C36.081 36.8738 33.2346 35.2981 31.5 32.04C31.5 31.6836 31.5 31.3272 31.5 30.96Z" fill="#E1E0E1"/>
<path d="M82.2 29.88C83.982 29.88 85.764 29.88 87.6 29.88C87.6 30.1176 87.6 30.3552 87.6 30.6C87.897 30.6 88.194 30.6 88.5 30.6C88.6299 31.6908 88.6847 32.4539 88.1309 33.3717C87.3637 34.3105 86.8557 34.8577 85.8 35.28C85.503 35.8146 85.503 35.8146 85.2 36.36C83.9651 37.1149 82.9936 37.592 81.6 37.44C81.6 37.6776 81.6 37.9152 81.6 38.16C81.204 38.16 80.808 38.16 80.4 38.16C80.301 37.6848 80.202 37.2096 80.1 36.72C80.3034 36.6713 80.5068 36.6226 80.7164 36.5723C82.7059 36.0201 84.1224 35.1929 85.7426 33.7036C86.344 33.1697 86.9217 32.7727 87.6 32.4C87.6 32.0436 87.6 31.6872 87.6 31.32C87.3277 31.3349 87.0555 31.3497 86.775 31.365C85.1266 31.3732 83.5156 30.9565 81.9 30.6C81.999 30.3624 82.098 30.1248 82.2 29.88Z" fill="#EEEDEE"/>
<path d="M91.5 20.52C91.5 21.114 91.5 21.708 91.5 22.32C91.698 22.32 91.896 22.32 92.1 22.32C92.001 22.5576 91.902 22.7952 91.8 23.04C91.0781 23.1764 91.0781 23.1764 90.15 23.2425C89.0724 23.3242 88.0064 23.4264 86.9355 23.5884C85.3494 23.8063 83.7759 23.7998 82.1812 23.7825C81.8929 23.7809 81.6046 23.7793 81.3076 23.7776C80.6051 23.7734 79.9025 23.7675 79.2 23.76C79.2 23.5224 79.2 23.2848 79.2 23.04C79.4052 23.0039 79.6104 22.9678 79.8218 22.9307C85.07 22.0172 85.07 22.0172 90.1863 20.3892C90.9 20.16 90.9 20.16 91.5 20.52Z" fill="#E0DFDE"/>
<path d="M27 10.44C28.089 11.1528 29.178 11.8656 30.3 12.6C30.3 12.8376 30.3 13.0752 30.3 13.32C30.5351 13.4091 30.7703 13.4982 31.0125 13.59C31.8491 13.9362 32.6525 14.3092 33.4688 14.715C35.2752 15.5953 37.1312 16.2592 39 16.92C39 17.2764 39 17.6328 39 18C38.8295 17.9304 38.6589 17.8608 38.4832 17.7891C37.4284 17.3622 36.383 16.9463 35.3063 16.605C32.2502 15.4862 29.4759 13.7444 26.7 11.88C26.799 11.4048 26.898 10.9296 27 10.44Z" fill="#DAD8D6"/>
<path d="M53.7 39.24C53.965 40.128 54.0394 40.5499 53.7668 41.4506C53.5945 41.8265 53.5945 41.8265 53.4188 42.21C53.3047 42.4643 53.1906 42.7186 53.0731 42.9806C52.9829 43.1718 52.8928 43.363 52.8 43.56C53.493 43.56 54.186 43.56 54.9 43.56C54.4642 44.911 54.4642 44.911 53.7188 45.315C53.1 45.36 53.1 45.36 52.2 44.64C51.5088 44.5422 50.8139 44.4786 50.1188 44.4375C47.8338 44.2962 47.8338 44.2962 46.8 43.92C46.8 43.6824 46.8 43.4448 46.8 43.2C47.097 43.2 47.394 43.2 47.7 43.2C47.799 42.9624 47.898 42.7248 48 42.48C48 42.7176 48 42.9552 48 43.2C49.448 43.2799 50.7909 43.2747 52.2 42.84C53.0083 41.7514 53.3752 40.6346 53.7 39.24Z" fill="#EEEDED"/>
<path d="M62.7 19.08C63.7421 18.9663 64.3127 18.9281 65.1938 19.6425C65.848 20.7765 65.9368 21.6749 66 23.04C65.901 23.2776 65.802 23.5152 65.7 23.76C65.304 23.76 64.908 23.76 64.5 23.76C64.401 24.948 64.302 26.136 64.2 27.36C64.002 27.36 63.804 27.36 63.6 27.36C63.3142 25.6453 63.275 24.06 63.3 22.32C63.795 22.32 64.29 22.32 64.8 22.32C64.6515 22.0379 64.503 21.7557 64.35 21.465C63.9 20.52 63.9 20.52 63.9 19.8C63.405 19.8 62.91 19.8 62.4 19.8C62.499 19.5624 62.598 19.3248 62.7 19.08Z" fill="#E4E6E6"/>
<path d="M66.9 53.28C67.3041 53.595 67.7032 53.9193 68.1 54.2475C68.4341 54.5169 68.4341 54.5169 68.775 54.7917C69.3 55.44 69.3 55.44 69.375 56.4145C69.3503 56.6869 69.3255 56.9593 69.3 57.24C68.5426 57.6945 68.0064 57.6355 67.1625 57.6225C66.8895 57.6193 66.6165 57.616 66.3352 57.6127C66.1256 57.6085 65.916 57.6043 65.7 57.6C65.7186 57.8821 65.7371 58.1643 65.7563 58.455C65.7377 58.7668 65.7191 59.0787 65.7 59.4C65.2545 59.7564 65.2545 59.7564 64.8 60.12C64.8 58.6944 64.8 57.2688 64.8 55.8C66.4335 56.1564 66.4335 56.1564 68.1 56.52C68.1 56.2824 68.1 56.0448 68.1 55.8C67.9082 55.7109 67.7164 55.6218 67.5188 55.53C66.9 55.08 66.9 55.08 66.6563 54.3375C66.6377 54.1073 66.6191 53.8771 66.6 53.64C66.699 53.5212 66.798 53.4024 66.9 53.28Z" fill="#F1F1F1"/>
<path d="M90 12.24C90.198 12.3588 90.396 12.4776 90.6 12.6C90.501 12.8376 90.402 13.0752 90.3 13.32C90.498 13.4388 90.696 13.5576 90.9 13.68C90.405 13.7988 89.91 13.9176 89.4 14.04C89.4 14.2776 89.4 14.5152 89.4 14.76C89.1645 14.8514 88.929 14.9428 88.6863 15.037C86.7043 15.8141 86.7043 15.8141 84.7688 16.74C83.7587 17.2504 82.7539 17.6814 81.7125 18.09C81.2241 18.2821 81.2241 18.2821 80.7258 18.4781C79.7802 18.7252 79.2198 18.68 78.3 18.36C79.2313 17.615 79.9968 17.2958 81.0621 16.8989C81.4301 16.7599 81.798 16.6209 82.1772 16.4777C82.7596 16.2601 83.3422 16.0431 83.9248 15.8262C84.4897 15.6153 85.054 15.4021 85.6184 15.1889C85.9551 15.0634 86.2919 14.9379 86.6388 14.8086C87.6062 14.3974 88.4843 13.8723 89.4 13.32C89.598 13.32 89.796 13.32 90 13.32C90 12.9636 90 12.6072 90 12.24Z" fill="#E0C8BF"/>
<path d="M70.2 48.24C71.1 48.6 71.1 48.6 71.4 48.96C71.4122 49.5598 71.4128 50.1602 71.4 50.76C71.202 50.76 71.004 50.76 70.8 50.76C70.8 50.9976 70.8 51.2352 70.8 51.48C70.602 51.48 70.404 51.48 70.2 51.48C70.101 52.074 70.002 52.668 69.9 53.28C69.3375 53.505 69.3375 53.505 68.7 53.64C68.502 53.4024 68.304 53.1648 68.1 52.92C68.2125 51.795 68.2125 51.795 68.4 50.76C68.499 51.1164 68.598 51.4728 68.7 51.84C68.898 51.84 69.096 51.84 69.3 51.84C69.201 51.5653 69.102 51.2906 69 51.0075C68.7 50.04 68.7 50.04 68.7 48.96C68.997 49.0788 69.294 49.1976 69.6 49.32C69.798 48.9636 69.996 48.6072 70.2 48.24Z" fill="#F2F2F2"/>
<path d="M55.5 55.44C55.698 55.5588 55.896 55.6776 56.1 55.8C56.001 57.2256 55.902 58.6512 55.8 60.12C56.904 58.9026 57.5936 57.8069 58.2 56.16C58.398 56.16 58.596 56.16 58.8 56.16C58.8 57.5856 58.8 59.0112 58.8 60.48C58.305 60.5988 57.81 60.7176 57.3 60.84C57.201 60.9588 57.102 61.0776 57 61.2C56.5001 61.2146 55.9998 61.2154 55.5 61.2C55.1985 60.1146 55.169 59.3849 55.1812 58.2525C55.184 57.9281 55.1867 57.6037 55.1894 57.2695C55.1929 57.0222 55.1964 56.7748 55.2 56.52C55.002 56.4012 54.804 56.2824 54.6 56.16C54.897 55.9224 55.194 55.6848 55.5 55.44Z" fill="#E5E4E4"/>
<path d="M88.8 28.08C88.8 28.4364 88.8 28.7928 88.8 29.16C88.1896 29.8925 87.8964 30.2185 87.0362 30.2809C86.8131 30.279 86.59 30.2771 86.3602 30.2752C86.1424 30.2743 85.9246 30.2734 85.7002 30.2724C85.4238 30.2692 85.1473 30.2659 84.8625 30.2625C83.9839 30.2551 83.1053 30.2477 82.2 30.24C84.873 30.7746 84.873 30.7746 87.6 31.32C87.501 31.6764 87.402 32.0328 87.3 32.4C87.3 32.1624 87.3 31.9248 87.3 31.68C86.8023 31.7009 86.8023 31.7009 86.2945 31.7222C84.7506 31.7214 83.2947 31.3795 81.7875 31.005C81.5172 30.9424 81.2469 30.8797 80.9684 30.8152C80.7104 30.7525 80.4525 30.6899 80.1867 30.6253C79.9538 30.5688 79.7208 30.5122 79.4808 30.4539C78.9 30.24 78.9 30.24 78.3 29.52C78.5754 29.5148 78.8509 29.5095 79.1347 29.5041C80.1591 29.4821 81.1832 29.4554 82.2075 29.4255C82.6503 29.4136 83.0932 29.4035 83.5361 29.3953C84.1737 29.3832 84.811 29.3643 85.4484 29.3442C85.8318 29.3348 86.2151 29.3254 86.6101 29.3157C87.6362 29.1543 88.0591 28.9211 88.8 28.08Z" fill="#C4C3C3"/>
<path d="M64.2 55.08C64.497 55.1988 64.794 55.3176 65.1 55.44C65.1 56.8656 65.1 58.2912 65.1 59.76C65.298 59.6412 65.496 59.5224 65.7 59.4C65.7 59.7564 65.7 60.1128 65.7 60.48C65.502 60.48 65.304 60.48 65.1 60.48C65.1 60.7176 65.1 60.9552 65.1 61.2C64.1993 61.2901 63.716 61.2812 62.925 60.7275C62.4 60.12 62.4 60.12 62.1 59.04C61.902 58.9212 61.704 58.8024 61.5 58.68C61.5 57.7296 61.5 56.7792 61.5 55.8C61.698 55.8 61.896 55.8 62.1 55.8C62.7 57.24 63.3 58.68 63.9 60.12C64.098 60.12 64.296 60.12 64.5 60.12C64.401 58.4568 64.302 56.7936 64.2 55.08Z" fill="#CECDCD"/>
<path d="M69.6 38.16C69.9879 38.5043 70.3753 38.8495 70.7625 39.195C70.9783 39.3871 71.1941 39.5792 71.4164 39.7772C72 40.32 72 40.32 72.6 41.04C73.3966 41.2435 74.1874 41.3056 75 41.4C74.901 41.7564 74.802 42.1128 74.7 42.48C74.403 42.48 74.106 42.48 73.8 42.48C73.701 42.9552 73.602 43.4304 73.5 43.92C71.817 43.8012 70.134 43.6824 68.4 43.56C68.4 43.4412 68.4 43.3224 68.4 43.2C69.786 43.2 71.172 43.2 72.6 43.2C72.6 42.9624 72.6 42.7248 72.6 42.48C72.303 42.3612 72.006 42.2424 71.7 42.12C71.1527 41.4014 71.1527 41.4014 70.5938 40.5225C70.407 40.2334 70.2202 39.9443 70.0277 39.6464C69.6 38.88 69.6 38.88 69.6 38.16Z" fill="#E7E7E7"/>
<path d="M31.5 30.96C31.797 31.0788 32.094 31.1976 32.4 31.32C32.4 31.6764 32.4 32.0328 32.4 32.4C32.5717 32.4348 32.7434 32.4696 32.9203 32.5055C33.7455 32.8145 34.2143 33.2866 34.875 33.9525C36.0927 35.1302 37.2787 35.9447 38.7 36.72C38.7 36.8388 38.7 36.9576 38.7 37.08C36.9574 37.2473 36.1749 36.9118 34.8 35.64C34.4375 35.3475 34.075 35.055 33.7125 34.7625C32.8067 33.9792 32.1193 33.1696 31.5 32.04C31.5 31.6836 31.5 31.3272 31.5 30.96Z" fill="#F4F4F4"/>
<path d="M53.1 54.72C52.902 55.314 52.704 55.908 52.5 56.52C53.49 56.4012 54.48 56.2824 55.5 56.16C55.5 57.4668 55.5 58.7736 55.5 60.12C55.302 60.0012 55.104 59.8824 54.9 59.76C54.7125 58.6575 54.7125 58.6575 54.6 57.6C54.3869 57.6042 54.1738 57.6084 53.9543 57.6127C53.6786 57.6159 53.4028 57.6192 53.1188 57.6225C52.8438 57.6267 52.5688 57.6309 52.2855 57.6352C51.6 57.6 51.6 57.6 51.3 57.24C51.225 56.3625 51.225 56.3625 51.3 55.44C52.2 54.72 52.2 54.72 53.1 54.72Z" fill="#F1F1F1"/>
<path d="M39 37.08C39.495 37.08 39.99 37.08 40.5 37.08C40.5 37.3176 40.5 37.5552 40.5 37.8C40.698 37.8 40.896 37.8 41.1 37.8C41.1 38.394 41.1 38.988 41.1 39.6C41.3599 39.6446 41.6197 39.6891 41.8875 39.735C42.8685 39.953 43.7618 40.2779 44.7 40.68C44.601 41.0364 44.502 41.3928 44.4 41.76C42.9491 41.4034 41.5571 41.0555 40.2 40.32C40.2 39.6072 40.2 38.8944 40.2 38.16C39.903 38.16 39.606 38.16 39.3 38.16C39.201 37.8036 39.102 37.4472 39 37.08Z" fill="#F1F0F0"/>
<path d="M78.6 38.52C78.897 38.52 79.194 38.52 79.5 38.52C79.5 38.8764 79.5 39.2328 79.5 39.6C79.698 39.6 79.896 39.6 80.1 39.6C80.1 39.8376 80.1 40.0752 80.1 40.32C78.7017 41.1054 77.3906 41.6086 75.8754 41.9653C75.2788 42.0966 75.2788 42.0966 74.7 42.48C74.7 42.2424 74.7 42.0048 74.7 41.76C74.007 41.6412 73.314 41.5224 72.6 41.4C72.6 41.2812 72.6 41.1624 72.6 41.04C72.8572 41.0006 73.1143 40.9611 73.3793 40.9205C75.2623 40.6071 76.9027 40.2821 78.6 39.24C78.6 39.0024 78.6 38.7648 78.6 38.52Z" fill="#D9D8D9"/>
<path d="M33 29.88C35.376 29.88 37.752 29.88 40.2 29.88C40.101 30.1176 40.002 30.3552 39.9 30.6C38.5952 31.076 37.2566 31.0013 35.9062 30.9825C35.6841 30.9809 35.4619 30.9793 35.233 30.9776C34.6887 30.9734 34.1443 30.9669 33.6 30.96C33.6 30.7224 33.6 30.4848 33.6 30.24C33.402 30.1212 33.204 30.0024 33 29.88Z" fill="#F5F5F5"/>
<path d="M93.9 9.72C94.395 9.72 94.89 9.72 95.4 9.72C95.4 9.9576 95.4 10.1952 95.4 10.44C94.7827 10.9731 94.1736 11.4533 93.525 11.925C93.2611 12.1262 93.2611 12.1262 92.9918 12.3314C91.984 13.0733 91.5136 13.32 90.3 13.32C90.7071 11.8543 91.3017 11.5604 92.4 10.8C93.2625 10.53 93.2625 10.53 93.9 10.44C93.9 10.2024 93.9 9.9648 93.9 9.72Z" fill="#F2F2F2"/>
<path d="M53.1 46.08C53.397 46.1988 53.694 46.3176 54 46.44C54.4035 48.2693 54.1934 49.7038 53.7 51.48C53.502 51.1236 53.304 50.7672 53.1 50.4C52.4494 50.5822 51.9001 50.7599 51.3 51.12C51.3 50.04 51.3 50.04 51.9 49.32C51.405 49.4388 50.91 49.5576 50.4 49.68C50.598 49.2048 50.796 48.7296 51 48.24C51.693 48.3588 52.386 48.4776 53.1 48.6C53.298 48.006 53.496 47.412 53.7 46.8C53.502 46.8 53.304 46.8 53.1 46.8C53.1 46.5624 53.1 46.3248 53.1 46.08Z" fill="#494747"/>
<path d="M62.1 18.72C62.298 18.9576 62.496 19.1952 62.7 19.44C63.0952 19.6911 63.4947 19.9331 63.9 20.16C63.5492 20.1558 63.1985 20.1517 62.8371 20.1473C62.3727 20.144 61.9082 20.1407 61.4437 20.1375C61.2131 20.1345 60.9824 20.1315 60.7447 20.1284C59.5544 20.1222 58.4623 20.165 57.3 20.52C57.3 20.2824 57.3 20.0448 57.3 19.8C58.6435 18.3545 60.3948 18.4663 62.1 18.72Z" fill="#E0DFDF"/>
<path d="M62.7 19.08C63.7421 18.9663 64.3127 18.9281 65.1938 19.6425C65.848 20.7765 65.9368 21.6749 66 23.04C65.901 23.2776 65.802 23.5152 65.7 23.76C65.403 23.6412 65.106 23.5224 64.8 23.4C64.8186 23.1253 64.8371 22.8506 64.8563 22.5675C64.79 21.428 64.5909 21.2455 63.9 20.52C63.9 20.2824 63.9 20.0448 63.9 19.8C63.405 19.8 62.91 19.8 62.4 19.8C62.499 19.5624 62.598 19.3248 62.7 19.08Z" fill="#EDEDED"/>
<path d="M70.8 41.04C71.6991 41.3996 72.0081 41.6345 72.6 42.48C72.6 42.7176 72.6 42.9552 72.6 43.2C71.115 43.2 69.63 43.2 68.1 43.2C68.001 42.606 67.902 42.012 67.8 41.4C67.998 41.6376 68.196 41.8752 68.4 42.12C69.2065 42.2172 69.9874 42.1515 70.8 42.12C70.8 41.7636 70.8 41.4072 70.8 41.04Z" fill="#2A2728"/>
<path d="M40.3313 22.455C40.8 23.04 40.8 23.04 40.8 23.76C39.018 23.76 37.236 23.76 35.4 23.76C35.4 23.6412 35.4 23.5224 35.4 23.4C37.0335 23.2218 37.0335 23.2218 38.7 23.04C37.809 22.9212 36.918 22.8024 36 22.68C36 22.5612 36 22.4424 36 22.32C37.4745 21.8911 38.9637 21.5293 40.3313 22.455Z" fill="#4C4849"/>
<path d="M66.3 48.24C66.597 48.3588 66.894 48.4776 67.2 48.6C67.2 48.8376 67.2 49.0752 67.2 49.32C67.497 49.0824 67.794 48.8448 68.1 48.6C68.9063 48.555 68.9063 48.555 69.6 48.6C69.6 48.9564 69.6 49.3128 69.6 49.68C69.303 49.68 69.006 49.68 68.7 49.68C68.898 49.9176 69.096 50.1552 69.3 50.4C69.3 50.8752 69.3 51.3504 69.3 51.84C69.102 51.84 68.904 51.84 68.7 51.84C68.6196 51.6098 68.5391 51.3797 68.4563 51.1425C68.134 50.2807 68.134 50.2807 67.2 50.04C67.101 50.3964 67.002 50.7528 66.9 51.12C66.6326 50.1574 66.4568 49.2346 66.3 48.24Z" fill="#555253"/>
<path d="M82.2 29.88C83.982 29.88 85.764 29.88 87.6 29.88C87.303 30.0582 87.303 30.0582 87 30.24C87 30.4776 87 30.7152 87 30.96C85.2642 30.9977 83.6121 30.9573 81.9 30.6C81.999 30.3624 82.098 30.1248 82.2 29.88Z" fill="#FDFDFD"/>
<path d="M76.5 28.8C81.9945 28.9782 81.9945 28.9782 87.6 29.16C87.6 29.2788 87.6 29.3976 87.6 29.52C86.1639 29.5804 84.7278 29.6382 83.2915 29.6936C82.8029 29.7128 82.3144 29.7327 81.8258 29.7534C81.1236 29.7829 80.4214 29.8099 79.7191 29.8364C79.3914 29.851 79.3914 29.851 79.0571 29.8659C78.1109 29.8994 77.4066 29.8826 76.5 29.52C76.5 29.2824 76.5 29.0448 76.5 28.8Z" fill="#4A4647"/>
<path d="M78.9 18.36C78.2457 19.1451 77.9982 19.2315 77.1234 19.4653C76.8899 19.528 76.6563 19.5906 76.4156 19.6552C76.1712 19.7178 75.9268 19.7805 75.675 19.845C75.3154 19.9431 75.3154 19.9431 74.9484 20.0433C73.6421 20.3862 72.4459 20.5982 71.1 20.52C72.1346 19.6923 73.1361 19.3864 74.325 19.035C74.6359 18.9369 74.6359 18.9369 74.9531 18.8367C76.3054 18.431 77.5068 18.2944 78.9 18.36Z" fill="#E8DFD9"/>
<path d="M84.9 22.68C84.603 22.7988 84.306 22.9176 84 23.04C84.7425 23.2182 84.7425 23.2182 85.5 23.4C85.5 23.5188 85.5 23.6376 85.5 23.76C83.421 23.76 81.342 23.76 79.2 23.76C79.2 23.5224 79.2 23.2848 79.2 23.04C79.9247 22.9091 80.6496 22.7822 81.375 22.6575C81.5796 22.6201 81.7841 22.5828 81.9949 22.5443C83.0355 22.3685 83.9007 22.2381 84.9 22.68Z" fill="#838182"/>
<path d="M58.8 19.8C60.5253 19.7625 62.2064 19.7276 63.9 20.16C63.999 20.3976 64.098 20.6352 64.2 20.88C64.002 21.1176 63.804 21.3552 63.6 21.6C63.0036 21.4384 62.4067 21.2739 61.8211 21.0628C61.1123 20.8228 61.1123 20.8228 60 20.88C60 20.6424 60 20.4048 60 20.16C59.604 20.0412 59.208 19.9224 58.8 19.8Z" fill="#242122"/>
<path d="M56.7 54.72C57.0967 55.6721 57.029 56.4039 57.0187 57.465C57.016 57.826 57.0133 58.1871 57.0105 58.5591C57.0071 58.8366 57.0036 59.1141 57 59.4C56.406 59.7564 56.406 59.7564 55.8 60.12C55.7757 59.4227 55.7582 58.7251 55.7437 58.0275C55.7333 57.6391 55.7229 57.2507 55.7121 56.8505C55.8 55.8 55.8 55.8 56.2535 55.1208C56.4009 54.9885 56.5482 54.8563 56.7 54.72Z" fill="#2F2C2C"/>
<path d="M92.4 19.08C92.4 20.16 92.4 20.16 91.8 21.24C92.196 21.3588 92.592 21.4776 93 21.6C92.901 22.4316 92.802 23.2632 92.7 24.12C92.403 24.12 92.106 24.12 91.8 24.12C91.899 23.526 91.998 22.932 92.1 22.32C91.902 22.32 91.704 22.32 91.5 22.32C91.275 21.51 91.275 21.51 91.2 20.52C91.7812 19.6875 91.7812 19.6875 92.4 19.08Z" fill="#F8F8F8"/>
<path d="M64.8 55.8C66.3 56.52 66.3 56.52 66.9 57.24C66.504 57.3588 66.108 57.4776 65.7 57.6C65.7186 57.8822 65.7371 58.1643 65.7563 58.455C65.7377 58.7669 65.7191 59.0787 65.7 59.4C65.2545 59.7564 65.2545 59.7564 64.8 60.12C64.8 58.6944 64.8 57.2688 64.8 55.8Z" fill="#FBFBFB"/>
<path d="M52.2 50.04C52.7813 50.085 52.7813 50.085 53.4 50.4C53.775 51.3225 53.775 51.3225 54 52.2C53.7278 52.1332 53.4555 52.0664 53.175 51.9975C52.2951 51.8554 51.8207 51.8591 51 52.2C51 51.606 51 51.012 51 50.4C51.297 50.4 51.594 50.4 51.9 50.4C51.999 50.2812 52.098 50.1624 52.2 50.04Z" fill="#D4D4D4"/>
<path d="M40.9723 16.8047C41.3847 16.9434 41.796 17.087 42.2062 17.235C42.4168 17.3069 42.6274 17.3789 42.8443 17.453C43.3639 17.6311 43.8821 17.815 44.4 18C44.4 18.2376 44.4 18.4752 44.4 18.72C42.5089 18.5099 40.804 17.9853 39 17.28C39.9 16.56 39.9 16.56 40.9723 16.8047Z" fill="#EB5324"/>
<path d="M64.2 55.08C64.497 55.1988 64.794 55.3176 65.1 55.44C65.1 56.8656 65.1 58.2912 65.1 59.76C65.298 59.6412 65.496 59.5224 65.7 59.4C65.7 59.7564 65.7 60.1128 65.7 60.48C65.502 60.48 65.304 60.48 65.1 60.48C65.1 60.7176 65.1 60.9552 65.1 61.2C64.605 61.2 64.11 61.2 63.6 61.2C63.501 60.7248 63.402 60.2496 63.3 59.76C63.696 59.8788 64.092 59.9976 64.5 60.12C64.401 58.4568 64.302 56.7936 64.2 55.08Z" fill="#D8D7D7"/>
<path d="M71.4 39.24C72.687 39.4776 73.974 39.7152 75.3 39.96C75.3 40.3164 75.3 40.6728 75.3 41.04C74.819 41.0692 74.3376 41.0901 73.8563 41.1075C73.5883 41.12 73.3203 41.1325 73.0441 41.1455C72.3 41.04 72.3 41.04 71.7527 40.5408C71.4 39.96 71.4 39.96 71.4 39.24Z" fill="#2A2727"/>
<path d="M70.8 19.8C71.4187 19.9575 71.4187 19.9575 72 20.16C71.703 20.16 71.406 20.16 71.1 20.16C71.0706 20.3647 71.0412 20.5693 71.0109 20.7802C70.691 22.7625 70.2051 24.2183 69.3 25.92C68.9382 24.6176 69.1847 24.1871 69.6504 22.9852C69.941 22.2407 69.941 22.2407 70.2375 21.105C70.5 20.16 70.5 20.16 70.8 19.8Z" fill="#EFD4C7"/>
<path d="M25.5 10.8C26.589 11.5128 27.678 12.2256 28.8 12.96C28.8 13.1976 28.8 13.4352 28.8 13.68C28.1494 13.4978 27.6001 13.3201 27 12.96C26.901 13.3164 26.802 13.6728 26.7 14.04C26.502 14.04 26.304 14.04 26.1 14.04C25.902 12.9708 25.704 11.9016 25.5 10.8Z" fill="#1B1819"/>
<path d="M34.2 15.84C36.0629 15.7202 37.2848 16.0379 39 16.92C39 17.2764 39 17.6328 39 18C38.8295 17.9304 38.6589 17.8608 38.4832 17.7891C37.0639 17.2147 35.6436 16.6792 34.2 16.2C34.2 16.0812 34.2 15.9624 34.2 15.84Z" fill="#CEBEB8"/>
<path d="M83.7 36.72C83.1 37.44 83.1 37.44 82.3125 37.485C82.0774 37.4702 81.8422 37.4553 81.6 37.44C81.6 37.6776 81.6 37.9152 81.6 38.16C81.204 38.16 80.808 38.16 80.4 38.16C80.301 37.6848 80.202 37.2096 80.1 36.72C81.3767 36.3022 82.4051 36.4458 83.7 36.72Z" fill="#EBEAEB"/>
<path d="M85.2 34.2C85.398 34.3188 85.596 34.4376 85.8 34.56C85.602 35.154 85.404 35.748 85.2 36.36C84.507 36.4788 83.814 36.5976 83.1 36.72C83.001 36.4824 82.902 36.2448 82.8 36C83.1856 35.689 83.5735 35.3823 83.9625 35.0775C84.2862 34.8206 84.2862 34.8206 84.6164 34.5586C84.809 34.4403 85.0016 34.3219 85.2 34.2Z" fill="#DCDCDC"/>
<path d="M55.5 55.44C55.698 55.5588 55.896 55.6776 56.1 55.8C56.001 57.2256 55.902 58.6512 55.8 60.12C56.097 60.12 56.394 60.12 56.7 60.12C56.7 60.4764 56.7 60.8328 56.7 61.2C56.205 61.0812 55.71 60.9624 55.2 60.84C55.2 59.4144 55.2 57.9888 55.2 56.52C55.002 56.4012 54.804 56.2824 54.6 56.16C54.897 55.9224 55.194 55.6848 55.5 55.44Z" fill="#EAE8E9"/>
<path d="M67.2 50.04C67.596 50.1588 67.992 50.2776 68.4 50.4C68.1375 51.795 68.1375 51.795 67.8 52.2C67.3002 52.2146 66.7998 52.2154 66.3 52.2C66.3 51.606 66.3 51.012 66.3 50.4C66.597 50.5782 66.597 50.5782 66.9 50.76C66.999 50.5224 67.098 50.2848 67.2 50.04Z" fill="#D7D6D6"/>
<path d="M54 45C53.901 45.3564 53.802 45.7128 53.7 46.08C53.502 46.08 53.304 46.08 53.1 46.08C53.1 46.3176 53.1 46.5552 53.1 46.8C53.298 46.8 53.496 46.8 53.7 46.8C53.601 47.2752 53.502 47.7504 53.4 48.24C53.4 47.8836 53.4 47.5272 53.4 47.16C53.004 47.2788 52.608 47.3976 52.2 47.52C52.101 46.926 52.002 46.332 51.9 45.72C53.325 45 53.325 45 54 45Z" fill="#E2E1E2"/>
<path d="M66.6 39.6C67.3678 40.0607 67.4097 40.4071 67.7063 41.355C67.7878 41.6065 67.8694 41.858 67.9535 42.1172C68.1 42.84 68.1 42.84 67.8 43.92C67.206 43.92 66.612 43.92 66 43.92C65.901 44.1576 65.802 44.3952 65.7 44.64C65.601 44.1648 65.502 43.6896 65.4 43.2C66.093 43.3188 66.786 43.4376 67.5 43.56C67.3515 43.1739 67.203 42.7878 67.05 42.39C66.634 41.3085 66.6 40.8746 66.6 39.6Z" fill="#ADACAC"/>
<path d="M66.3 45.72C66.597 45.8388 66.894 45.9576 67.2 46.08C67.2 46.3176 67.2 46.5552 67.2 46.8C67.002 46.8 66.804 46.8 66.6 46.8C66.501 47.2752 66.402 47.7504 66.3 48.24C66.003 48.0024 65.706 47.7648 65.4 47.52C65.4 47.7576 65.4 47.9952 65.4 48.24C65.202 48.24 65.004 48.24 64.8 48.24C64.8 47.646 64.8 47.052 64.8 46.44C65.196 46.44 65.592 46.44 66 46.44C66.099 46.2024 66.198 45.9648 66.3 45.72Z" fill="#2E2B2C"/>
<path d="M31.5 30.96C31.797 31.0788 32.094 31.1976 32.4 31.32C32.4 31.6764 32.4 32.0328 32.4 32.4C32.5856 32.4371 32.7712 32.4742 32.9625 32.5125C33.6 32.76 33.6 32.76 34.2 33.84C34.002 34.0776 33.804 34.3152 33.6 34.56C31.8646 33.0092 31.8646 33.0092 31.5375 31.7475C31.5251 31.4876 31.5127 31.2277 31.5 30.96Z" fill="#F6F6F6"/>
<path d="M41.1 30.6C40.803 30.6 40.506 30.6 40.2 30.6C40.2 30.8376 40.2 31.0752 40.2 31.32C39.7706 31.4702 39.3388 31.6109 38.9062 31.7475C38.6661 31.8269 38.4259 31.9062 38.1785 31.988C37.5 32.04 37.5 32.04 36.9621 31.5183C36.8426 31.334 36.7231 31.1498 36.6 30.96C37.1244 30.8287 37.6495 30.7021 38.175 30.5775C38.6135 30.471 38.6135 30.471 39.0609 30.3623C39.8604 30.2458 40.3466 30.2922 41.1 30.6Z" fill="#312E2F"/>
<path d="M94.8 10.44C94.998 10.44 95.196 10.44 95.4 10.44C95.4 11.9844 95.4 13.5288 95.4 15.12C95.103 15.0012 94.806 14.8824 94.5 14.76C94.599 13.3344 94.698 11.9088 94.8 10.44Z" fill="#BAB8B8"/>
<path d="M90.9 27C90.4251 28.5387 89.5483 29.2555 88.5 30.24C88.302 30.0024 88.104 29.7648 87.9 29.52C88.2859 29.0979 88.6738 28.6783 89.0625 28.26C89.3862 27.9092 89.3862 27.9092 89.7164 27.5513C90.3 27 90.3 27 90.9 27Z" fill="#EEEEEE"/>
<path d="M47.7 42.48C47.799 42.7176 47.898 42.9552 48 43.2C49.287 43.2 50.574 43.2 51.9 43.2C51.9 43.3188 51.9 43.4376 51.9 43.56C51.6687 43.5818 51.4375 43.6036 51.1992 43.6261C50.8984 43.6563 50.5975 43.6864 50.2875 43.7175C49.8385 43.7613 49.8385 43.7613 49.3805 43.8061C48.6062 43.8659 48.6062 43.8659 48 44.28C47.3625 44.1225 47.3625 44.1225 46.8 43.92C46.8 43.6824 46.8 43.4448 46.8 43.2C47.097 43.2 47.394 43.2 47.7 43.2C47.7 42.9624 47.7 42.7248 47.7 42.48Z" fill="#CFCECF"/>
<path d="M27.6 22.68C28.5483 23.1731 28.7978 23.3961 29.4 24.48C29.4 24.8364 29.4 25.1928 29.4 25.56C29.103 25.56 28.806 25.56 28.5 25.56C27.8677 24.5202 27.6 23.9815 27.6 22.68Z" fill="#EEEEEE"/>
<path d="M94.2 14.04C94.398 14.2776 94.596 14.5152 94.8 14.76C94.7438 15.84 94.7438 15.84 94.5 16.92C94.0545 17.2764 94.0545 17.2764 93.6 17.64C93.6 16.2344 93.8051 15.3431 94.2 14.04Z" fill="#DBDBDB"/>
<path d="M59.1 55.8C59.199 55.8 59.298 55.8 59.4 55.8C59.5015 56.3696 59.6011 56.9397 59.7 57.51C59.7557 57.8274 59.8114 58.1448 59.8687 58.4719C60 59.4 60 59.4 60 60.84C59.802 60.84 59.604 60.84 59.4 60.84C58.9853 59.8448 59.0714 59.0234 59.0812 57.915C59.084 57.5205 59.0867 57.1261 59.0895 56.7197C59.0929 56.4162 59.0964 56.1127 59.1 55.8Z" fill="#141011"/>
<path d="M68.7 25.2C68.799 25.6752 68.898 26.1504 69 26.64C68.109 27.531 68.109 27.531 67.2 28.44C66.903 28.2024 66.606 27.9648 66.3 27.72C66.5846 27.5047 66.8693 27.2893 67.1625 27.0675C68.1419 26.3464 68.1419 26.3464 68.7 25.2Z" fill="#E1C6BC"/>
<path d="M63 21.6C63.396 21.8376 63.792 22.0752 64.2 22.32C63.903 22.32 63.606 22.32 63.3 22.32C63.399 23.7456 63.498 25.1712 63.6 26.64C63.303 26.5212 63.006 26.4024 62.7 26.28C62.6919 25.5675 62.6861 24.855 62.6813 24.1425C62.6778 23.7457 62.6743 23.349 62.6707 22.9402C62.7 21.96 62.7 21.96 63 21.6Z" fill="#333030"/>
<path d="M28.8 22.68C29.344 22.7209 29.8877 22.7668 30.4312 22.815C30.8854 22.8526 30.8854 22.8526 31.3488 22.8909C31.7207 22.9647 31.7207 22.9647 32.1 23.04C32.199 23.2776 32.298 23.5152 32.4 23.76C31.311 23.76 30.222 23.76 29.1 23.76C29.001 23.4036 28.902 23.0472 28.8 22.68Z" fill="#1A1617"/>
<path d="M64.8 20.88C65.097 20.88 65.394 20.88 65.7 20.88C66.0375 22.95 66.0375 22.95 65.7 23.76C65.403 23.6412 65.106 23.5224 64.8 23.4C64.8 22.5684 64.8 21.7368 64.8 20.88Z" fill="#FCFCFC"/>
<path d="M55.5 56.16C55.5 57.4668 55.5 58.7736 55.5 60.12C55.302 60.0012 55.104 59.8824 54.9 59.76C54.7758 59.0161 54.7758 59.0161 54.7125 58.1175C54.6901 57.82 54.6676 57.5226 54.6445 57.2161C54.6298 56.9864 54.6151 56.7567 54.6 56.52C55.2 56.16 55.2 56.16 55.5 56.16Z" fill="#FDFCFD"/>
<path d="M78.6 38.52C78.897 38.52 79.194 38.52 79.5 38.52C79.5 38.8764 79.5 39.2328 79.5 39.6C79.698 39.6 79.896 39.6 80.1 39.6C80.1 39.8376 80.1 40.0752 80.1 40.32C79.605 40.4388 79.11 40.5576 78.6 40.68C78.6 40.4424 78.6 40.2048 78.6 39.96C78.402 39.8412 78.204 39.7224 78 39.6C78.198 39.3624 78.396 39.1248 78.6 38.88C78.6 38.7612 78.6 38.6424 78.6 38.52Z" fill="#CBCACA"/>
<path d="M46.8 32.4C46.998 32.5188 47.196 32.6376 47.4 32.76C45.6404 34.5195 45.6404 34.5195 44.7 34.92C44.2969 34.8158 43.8961 34.6974 43.5 34.56C43.7442 34.4166 43.7442 34.4166 43.9934 34.2703C44.208 34.1432 44.4226 34.016 44.6438 33.885C44.8561 33.7597 45.0684 33.6344 45.2871 33.5053C45.9637 33.0964 45.9637 33.0964 46.8 32.4Z" fill="#171515"/>
<path d="M90.6 23.04C90.897 23.04 91.194 23.04 91.5 23.04C91.1532 24.4484 90.7934 25.5148 90 26.64C89.802 26.5212 89.604 26.4024 89.4 26.28C89.5423 26.0795 89.6846 25.8791 89.8313 25.6725C90.3372 24.774 90.4769 24.1039 90.6 23.04Z" fill="#120F10"/>
<path d="M50.7 20.16C50.601 20.754 50.502 21.348 50.4 21.96C50.301 21.96 50.202 21.96 50.1 21.96C50.1 21.366 50.1 20.772 50.1 20.16C49.11 20.0412 48.12 19.9224 47.1 19.8C47.1 19.6812 47.1 19.5624 47.1 19.44C48.649 19.0391 49.4173 18.9939 50.7 20.16Z" fill="#EC5825"/>
<path d="M90 12.24C90.198 12.3588 90.396 12.4776 90.6 12.6C90.501 12.8376 90.402 13.0752 90.3 13.32C90.498 13.4388 90.696 13.5576 90.9 13.68C90.405 13.7988 89.91 13.9176 89.4 14.04C89.4 14.2776 89.4 14.5152 89.4 14.76C88.905 14.6412 88.41 14.5224 87.9 14.4C88.6858 13.7713 89.1115 13.5406 90 13.32C90 12.9636 90 12.6072 90 12.24Z" fill="#DEC2BA"/>
<path d="M24.9 9.72C25.6125 9.675 25.6125 9.675 26.4 9.72C27 10.44 27 10.44 27 11.52C26.604 11.4012 26.208 11.2824 25.8 11.16C25.8 10.9224 25.8 10.6848 25.8 10.44C25.503 10.44 25.206 10.44 24.9 10.44C24.9 10.2024 24.9 9.9648 24.9 9.72Z" fill="#F1F0F1"/>
<path d="M54 54C54.198 54 54.396 54 54.6 54C54.501 54.7128 54.402 55.4256 54.3 56.16C53.805 56.16 53.31 56.16 52.8 56.16C53.1455 55.2715 53.4143 54.7028 54 54Z" fill="#1C191A"/>
<path d="M63.9 47.16C64.6375 48.4874 64.8037 49.5709 65.1 51.12C64.803 51.12 64.506 51.12 64.2 51.12C63.8473 49.7973 63.8779 48.5391 63.9 47.16Z" fill="#3C393A"/>
<path d="M56.1 46.08C56.298 46.08 56.496 46.08 56.7 46.08C56.502 47.0304 56.304 47.9808 56.1 48.96C55.704 48.7224 55.308 48.4848 54.9 48.24C55.098 48.24 55.296 48.24 55.5 48.24C55.5433 47.9504 55.5866 47.6609 55.6313 47.3625C55.8 46.44 55.8 46.44 56.1 46.08Z" fill="#C3C2C2"/>
<path d="M74.1 35.28C75.3745 35.4499 75.96 36.348 76.8 37.44C75.4763 37.44 75.0648 36.6949 74.1 35.64C74.1 35.5212 74.1 35.4024 74.1 35.28Z" fill="#1C191A"/>
<path d="M73.2 32.4C74.381 32.8724 75.0682 33.4509 75.9 34.56C74.826 34.56 74.6298 34.2268 73.8 33.48C73.503 33.48 73.206 33.48 72.9 33.48C72.999 33.1236 73.098 32.7672 73.2 32.4Z" fill="#292627"/>
<path d="M86.4 21.24C86.301 21.4776 86.202 21.7152 86.1 21.96C85.2748 22.2901 84.7922 22.3592 83.9438 22.3425C83.3776 22.3314 83.3776 22.3314 82.8 22.32C84.0417 21.3267 84.9215 21.1907 86.4 21.24Z" fill="#151112"/>
<path d="M88.5 14.76C87.609 15.2352 86.718 15.7104 85.8 16.2C85.8 15.8436 85.8 15.4872 85.8 15.12C87.4875 14.355 87.4875 14.355 88.5 14.76Z" fill="#EAD8D0"/>
<path d="M29.1 13.68C30.2875 13.8836 31.0998 14.3312 32.1 15.12C30.8472 15.6211 30.2596 15.0564 29.1 14.4C29.1 14.1624 29.1 13.9248 29.1 13.68Z" fill="#161415"/>
<path d="M92.4 11.16C92.4 11.3976 92.4 11.6352 92.4 11.88C92.103 12.0582 92.103 12.0582 91.8 12.24C91.899 12.4776 91.998 12.7152 92.1 12.96C91.506 13.0788 90.912 13.1976 90.3 13.32C90.6551 12.0417 91.2019 11.16 92.4 11.16Z" fill="#E6E6E6"/>
<path d="M51 48.24C51.792 48.3588 52.584 48.4776 53.4 48.6C53.4 48.8376 53.4 49.0752 53.4 49.32C53.0721 49.3126 52.7441 49.3052 52.4063 49.2975C51.3168 49.2532 51.3168 49.2532 50.4 49.68C50.598 49.2048 50.796 48.7296 51 48.24Z" fill="#7A7878"/>
<path d="M53.4 47.16C53.301 47.754 53.202 48.348 53.1 48.96C52.407 48.7224 51.714 48.4848 51 48.24C51 48.1212 51 48.0024 51 47.88C52.725 47.16 52.725 47.16 53.4 47.16Z" fill="#F7F7F7"/>
<path d="M33.9 33.84C34.4625 33.885 34.4625 33.885 35.1 34.2C35.475 35.3025 35.475 35.3025 35.7 36.36C34.8 35.7075 34.8 35.7075 33.9 34.92C33.9 34.5636 33.9 34.2072 33.9 33.84Z" fill="#E5E5E5"/>
<path d="M87 30.24C87.495 30.3588 87.99 30.4776 88.5 30.6C88.5 30.8376 88.5 31.0752 88.5 31.32C88.302 31.32 88.104 31.32 87.9 31.32C87.801 31.5576 87.702 31.7952 87.6 32.04C87.6 31.8024 87.6 31.5648 87.6 31.32C86.907 31.32 86.214 31.32 85.5 31.32C85.5 31.2012 85.5 31.0824 85.5 30.96C85.995 30.96 86.49 30.96 87 30.96C87 30.7224 87 30.4848 87 30.24Z" fill="#DFDEDE"/>
<path d="M76.5 28.8C77.688 28.9188 78.876 29.0376 80.1 29.16C80.1 29.2788 80.1 29.3976 80.1 29.52C79.6691 29.5905 79.2377 29.6573 78.8063 29.7225C78.5661 29.7601 78.326 29.7977 78.0785 29.8364C77.4 29.88 77.4 29.88 76.5 29.52C76.5 29.2824 76.5 29.0448 76.5 28.8Z" fill="#7D7B7C"/>
<path d="M56.1 23.76C56.397 23.8788 56.694 23.9976 57 24.12C57.0375 25.155 57.0375 25.155 57 26.28C56.802 26.5176 56.604 26.7552 56.4 27C56.301 25.9308 56.202 24.8616 56.1 23.76Z" fill="#F1F3F3"/>
<path d="M29.7 12.96C31.425 13.59 31.425 13.59 32.1 14.4C31.2 14.76 31.2 14.76 30.2438 14.2425C29.9653 14.0569 29.6869 13.8713 29.4 13.68C29.499 13.4424 29.598 13.2048 29.7 12.96Z" fill="#D4CECB"/>
<path d="M94.5 10.8C94.698 10.8 94.896 10.8 95.1 10.8C94.902 11.8692 94.704 12.9384 94.5 14.04C93.9 12.96 93.9 12.96 93.9938 12.015C94.2 11.16 94.2 11.16 94.5 10.8Z" fill="#2C292A"/>
<path d="M24.9 10.44C25.197 10.5588 25.494 10.6776 25.8 10.8C25.899 11.7504 25.998 12.7008 26.1 13.68C25.902 13.5612 25.704 13.4424 25.5 13.32C25.5 13.0824 25.5 12.8448 25.5 12.6C25.302 12.6 25.104 12.6 24.9 12.6C24.9 11.8872 24.9 11.1744 24.9 10.44Z" fill="#C3C2C3"/>
<path d="M58.2 56.16C58.398 56.16 58.596 56.16 58.8 56.16C58.8 56.9916 58.8 57.8232 58.8 58.68C57.9 58.68 57.9 58.68 57.3 58.32C57.597 57.6072 57.894 56.8944 58.2 56.16Z" fill="#C9C8C8"/>
<path d="M56.4 46.8C57 48.24 57 48.24 56.7562 49.185C56.5375 49.71 56.3187 50.235 56.1 50.76C55.902 50.76 55.704 50.76 55.5 50.76C55.797 49.4532 56.094 48.1464 56.4 46.8Z" fill="#323030"/>
<path d="M67.5 45.36C67.797 45.4788 68.094 45.5976 68.4 45.72C68.1 46.44 68.1 46.44 67.5 46.7775C66.7962 47.1201 66.7962 47.1201 66.6 48.24C66.6 47.7648 66.6 47.2896 66.6 46.8C66.798 46.8 66.996 46.8 67.2 46.8C67.101 46.4436 67.002 46.0872 66.9 45.72C67.098 45.6012 67.296 45.4824 67.5 45.36Z" fill="#CDCCCC"/>
<path d="M53.7 39.24C54.0098 40.2438 54.0135 40.6324 53.7187 41.67C53.6136 41.9373 53.5084 42.2046 53.4 42.48C53.202 42.3612 53.004 42.2424 52.8 42.12C53.3625 39.645 53.3625 39.645 53.7 39.24Z" fill="#908E8F"/>
<path d="M31.8 20.16C31.998 20.5164 32.196 20.8728 32.4 21.24C31.2843 21.0574 30.3796 20.8382 29.4 20.16C30.3984 19.7607 30.8098 19.7944 31.8 20.16Z" fill="#363334"/>
<path d="M58.8 19.8C59.79 19.8 60.78 19.8 61.8 19.8C61.503 19.9782 61.503 19.9782 61.2 20.16C61.2 20.3976 61.2 20.6352 61.2 20.88C60.804 20.88 60.408 20.88 60 20.88C60 20.6424 60 20.4048 60 20.16C59.604 20.0412 59.208 19.9224 58.8 19.8Z" fill="#656263"/>
<path d="M87.6 15.48C87.501 15.8364 87.402 16.1928 87.3 16.56C86.706 16.6788 86.112 16.7976 85.5 16.92C85.599 16.5636 85.698 16.2072 85.8 15.84C86.7 15.48 86.7 15.48 87.6 15.48Z" fill="#29282A"/>
<path d="M58.2 57.96C58.8 58.68 58.8 58.68 58.8375 59.625C58.8251 59.9071 58.8127 60.1893 58.8 60.48C58.503 60.48 58.206 60.48 57.9 60.48C57.8872 59.7602 57.8878 59.0398 57.9 58.32C57.999 58.2012 58.098 58.0824 58.2 57.96Z" fill="#F5F5F5"/>
<path d="M78.6 39.96C78.6 40.3164 78.6 40.6728 78.6 41.04C78.105 41.1588 77.61 41.2776 77.1 41.4C77.1 41.0436 77.1 40.6872 77.1 40.32C77.7 39.96 77.7 39.96 78.6 39.96Z" fill="#F0F0F0"/>
<path d="M79.5 37.8C80.1375 38.1375 80.1375 38.1375 80.7 38.52C80.7 38.8764 80.7 39.2328 80.7 39.6C80.304 39.6 79.908 39.6 79.5 39.6C79.5 39.2436 79.5 38.8872 79.5 38.52C79.302 38.4012 79.104 38.2824 78.9 38.16C79.098 38.0412 79.296 37.9224 79.5 37.8Z" fill="#F9F9F9"/>
<path d="M91.8 19.44C91.0815 20.4838 90.5063 20.7006 89.4 20.88C89.4 20.6424 89.4 20.4048 89.4 20.16C90.3684 19.3853 90.6852 19.3677 91.8 19.44Z" fill="#312E2F"/>
</svg>
